<?xml version="1.0" encoding="UTF-8"?>
<svg id="Ebene_2" data-name="Ebene 2" xmlns="http://www.w3.org/2000/svg" viewBox="0 0 806 162.52">
  <defs>
    <style>
      .cls-1 {
        fill: #fff;
      }
    </style>
  </defs>
  <g id="Ebene_1-2" data-name="Ebene 1">
    <g>
      <path class="cls-1" d="M75.86,3.11v69.67c0,1.71-1.39,3.1-3.1,3.1H3.11c-1.81,0-3.28-1.55-3.09-3.35C3.87,34.28,34.26,3.87,72.51.02c1.8-.18,3.35,1.28,3.35,3.09Z"/>
      <path class="cls-1" d="M3.11,85.65h69.65c1.71,0,3.1,1.39,3.1,3.1v69.67c0,1.81-1.55,3.28-3.35,3.09C34.26,157.66,3.87,127.25.02,89c-.18-1.8,1.28-3.35,3.09-3.35Z"/>
      <path class="cls-1" d="M156.56,160.84h-69.65c-1.81,0-3.28-1.55-3.09-3.35,3.85-38.25,34.25-68.66,72.49-72.51,1.8-.18,3.35,1.28,3.35,3.09v69.67c0,1.71-1.39,3.1-3.1,3.1Z"/>
      <path class="cls-1" d="M158.4,75.88h-69.65c-1.71,0-3.1-1.39-3.1-3.1V3.11c0-1.81,1.55-3.28,3.35-3.09,38.25,3.86,68.64,34.27,72.49,72.51.18,1.8-1.28,3.35-3.09,3.35Z"/>
      <path class="cls-1" d="M327.82,79.82v-11.16c-10.39,1.54-15.58,6.15-17.81,9.87l-2.91-9.62h-7.65v93.61h13.86v-34.16c2.16,3.26,6.65,6.86,14.5,8.44v-11.14c-12.41-1.64-14.65-10.91-14.65-22.88,0-12.57,2.7-21.38,14.65-22.96ZM336.9,67.98v11.91c11.08,1.87,13.71,10.72,13.71,22.9s-2.64,20.65-13.71,22.63v12.18c21.76-.29,27.82-16.52,27.82-34.8s-6.4-34.62-27.82-34.8Z"/>
      <path class="cls-1" d="M378.62,136.41h-2.64V43.19h14.11v93.22h-11.47Z"/>
      <path class="cls-1" d="M410.66,61.12c-6.32,0-10.41-1.71-10.41-8.44s4.09-8.57,10.41-8.57,10.02,1.72,10.02,8.57-3.96,8.44-10.02,8.44ZM406.32,136.41h-2.77v-67.5h13.98v67.5h-11.21Z"/>
      <path class="cls-1" d="M434.67,117.03v-36.79h-9.62l-.13-8.44,9.76-3.17v-16.74h13.98s.39,43.37.39,65.13c0,6.32,2.64,9.22,17.27,8.57v11.34c-22.28,1.32-31.64-3.95-31.64-19.9ZM455.79,80.24v-11.61h10.53v11.61h-10.53Z"/>
      <path class="cls-1" d="M551.32,91.58c7.92-1.85,10.81-9.75,11.22-17.41.25-12.51-8.31-22.15-31.52-22.15h-9.23v12.01h9.77c13.96,0,16.73,5.13,16.73,12.11,0,5.69-2.37,11.89-15.94,11.89h-19.78v-36.01h-14.5v84.51h14.5v-37.3h19.78c8.96,0,17.93,1.33,17.93,12.51,0,7.27-2.64,12.95-18.2,12.95h-10.29v11.84h9.77c25.83,0,33.6-11.84,33.6-24.64,0-8.58-4.74-17.79-13.84-20.3Z"/>
      <path class="cls-1" d="M583.15,61.12c-6.32,0-10.41-1.71-10.41-8.44s4.09-8.57,10.41-8.57,10.02,1.72,10.02,8.57-3.96,8.44-10.02,8.44ZM578.8,136.41h-2.77v-67.5h13.98v67.5h-11.21Z"/>
      <path class="cls-1" d="M606.1,136.41h-2.64V43.19h14.11v93.22h-11.47Z"/>
      <path class="cls-1" d="M633.94,136.41h-2.64V43.19h14.11v93.22h-11.47Z"/>
      <path class="cls-1" d="M696.13,87.49v-35.47h-14.36v84.38h14.36v-37.17h40.21v-11.74h-40.21ZM705.23,52.02v12.01h35.2v-12.01h-35.2ZM705.23,124.41v11.99h35.2v-11.99h-35.2Z"/>
      <path class="cls-1" d="M749.7,136.41v-12l49.84-55.5h5.14v12l-40.34,44.04h41.66v11.47h-56.3ZM779.3,80.24h-29.46v-11.34h39.88l-10.42,11.34Z"/>
      <path class="cls-1" d="M255.95,63.69c9.9,1.64,14.12,7.33,14.73,17.07h14.37c-.12-16.45-8.92-27.78-29.1-29.47v12.4Z"/>
      <path class="cls-1" d="M246.85,124.75c-13.4-1.51-17.86-9.11-18.24-18.53h-14.5c.26,17.81,9.03,29.48,32.74,31.09v-12.57Z"/>
      <path class="cls-1" d="M246.85,51.19v12.11c-11.32.62-16.35,5.4-15.98,12.99.27,5.96,7.15,8.29,15.98,10.16v12.28c-14.57-2.72-30.09-6.19-30.36-21.78-.37-14.44,8.81-24.89,30.36-25.77Z"/>
      <path class="cls-1" d="M286.24,111.74c0,11.47-6.82,24.25-30.3,25.58v-12.51c12.07-.93,15.79-5.94,16.04-11.74.48-7.58-6.69-10.49-16.04-12.55v-12.28c14.65,2.87,30.3,7,30.3,23.5Z"/>
    </g>
  </g>
</svg>