<?xml version="1.0" encoding="UTF-8"?>
<svg version="1.1" xmlns="http://www.w3.org/2000/svg" width="806" height="310">
<path d="M0 0 C2.26842978 2.15983474 3.13117674 3.04589851 3.3429327 6.14140034 C3.34980382 6.98848655 3.35667494 7.83557276 3.36375427 8.70832825 C3.37882271 10.16567635 3.37882271 10.16567635 3.39419556 11.65246582 C3.40002655 12.72210571 3.40585754 13.79174561 3.41186523 14.89379883 C3.42164902 16.0174736 3.4314328 17.14114838 3.44151306 18.2988739 C3.47151103 22.02996628 3.49286319 25.76102276 3.51171875 29.4921875 C3.51829058 30.76388983 3.5248624 32.03559216 3.53163338 33.34583092 C3.55752775 38.68935312 3.58101748 44.03286095 3.59612942 49.37642384 C3.61803911 57.03382417 3.66001606 64.69052358 3.72956699 72.34764367 C3.78250907 78.3811335 3.80261128 84.41430021 3.81132698 90.44803429 C3.81990616 93.01454803 3.83878415 95.58104845 3.8680706 98.14740944 C3.90682818 101.73660913 3.90803926 105.32397212 3.90014648 108.91333008 C3.9301474 110.50868088 3.9301474 110.50868088 3.96075439 112.13626099 C3.91344239 116.91973831 3.76594821 119.33597664 0.86843872 123.25723267 C-3.67252788 126.21089347 -8.9091894 125.78619585 -14.13891602 125.72875977 C-15.27292847 125.73591507 -16.40694092 125.74307037 -17.57531738 125.7504425 C-21.31755048 125.7673284 -25.05858563 125.74792684 -28.80078125 125.7265625 C-31.40339761 125.72739114 -34.00601393 125.72985033 -36.60862732 125.73387146 C-42.06010698 125.73838653 -47.51124286 125.72255797 -52.96264648 125.69458008 C-59.25898862 125.66251427 -65.55471144 125.66255174 -71.85109764 125.67979485 C-77.91776585 125.69567454 -83.98414646 125.68882024 -90.05082512 125.67185783 C-92.62844269 125.66667238 -95.20607809 125.66716219 -97.78369331 125.67340279 C-101.3842631 125.67884812 -104.9837788 125.65849998 -108.58422852 125.63110352 C-109.65086227 125.63762939 -110.71749603 125.64415527 -111.81645203 125.65087891 C-116.29651522 125.59286651 -119.03765475 125.54173427 -122.96055603 123.24717712 C-126.16971464 119.49066557 -125.33312169 115.73246845 -125.15234375 111.0078125 C-124.5655286 104.55284586 -123.36787286 98.38164769 -121.796875 92.09765625 C-121.49136719 90.855 -121.18585938 89.61234375 -120.87109375 88.33203125 C-116.04446711 70.31660711 -106.4613308 54.5478507 -94.18310547 40.67333984 C-93.01586361 39.34657356 -91.88784306 37.98544954 -90.76953125 36.6171875 C-86.40385049 31.30646525 -81.28408355 27.20889305 -75.796875 23.09765625 C-75.07242188 22.53433594 -74.34796875 21.97101563 -73.6015625 21.390625 C-58.71209297 10.3143123 -18.5753264 -12.63433513 0 0 Z " fill="#ffffff" transform="translate(275.796875,152.90234375)"/>
<path d="M0 0 C3.49934014 4.65236646 3.06049887 8.71260686 2.99842834 14.39173889 C3.0091613 16.09494797 3.0091613 16.09494797 3.02011108 17.83256531 C3.03701705 21.5850398 3.01758372 25.33632299 2.99623108 29.08876038 C2.99705953 31.69520161 2.99951802 34.30164279 3.00354004 36.90808105 C3.00805746 42.36973287 2.99221189 47.83104181 2.96424866 53.2926178 C2.93218181 59.60429549 2.93221952 65.91535542 2.94946343 72.22707707 C2.96533292 78.30388837 2.95849592 84.38043714 2.94152641 90.45724297 C2.93633686 93.04126923 2.93683573 95.62531328 2.94307137 98.20933723 C2.94850999 101.81740465 2.92819025 105.42441666 2.90077209 109.03236389 C2.91056091 110.64006401 2.91056091 110.64006401 2.92054749 112.28024292 C2.82689103 119.51347136 2.82689103 119.51347136 0.45898438 122.77954102 C-2.73366371 124.86733102 -4.49883369 125.27560265 -8.28804016 125.29452515 C-9.26946487 125.30168045 -10.25088959 125.30883575 -11.26205444 125.31620789 C-12.88289696 125.32024124 -12.88289696 125.32024124 -14.53648376 125.32435608 C-15.6715184 125.33092728 -16.80655304 125.33749847 -17.97598267 125.3442688 C-21.74435994 125.36403321 -25.51269734 125.37567023 -29.28111267 125.38563538 C-31.20708723 125.39174867 -31.20708723 125.39174867 -33.17197037 125.39798546 C-39.26418033 125.41670382 -45.35637021 125.431268 -51.44860303 125.43959743 C-58.48332782 125.44937409 -65.5177383 125.47570493 -72.55235231 125.51609832 C-78.64349899 125.54987537 -84.73451329 125.56174056 -90.82574844 125.56580162 C-93.41817484 125.57068548 -96.01059744 125.58235016 -98.60296249 125.60083961 C-102.22559169 125.62507499 -105.84739281 125.6242944 -109.47007751 125.61732483 C-111.08484734 125.63653992 -111.08484734 125.63653992 -112.73223877 125.65614319 C-119.99938317 125.60502016 -119.99938317 125.60502016 -123.26783752 123.24298096 C-127.81649867 116.25878297 -125.221103 105.83938094 -123.69517517 97.97938538 C-118.93237092 75.68593194 -108.96839439 56.1025253 -93.63267517 39.14735413 C-93.18649841 38.64671448 -92.74032166 38.14607483 -92.28062439 37.63026428 C-72.41572055 15.61304719 -46.47728422 3.20627837 -17.57017517 -1.66514587 C-16.37328064 -1.86986511 -16.37328064 -1.86986511 -15.15220642 -2.07872009 C-9.44275887 -2.96053943 -4.95207748 -3.48483778 0 0 Z " fill="#ffffff" transform="translate(132.63267517089844,8.852645874023438)"/>
<path d="M0 0 C0.98839371 -0.00860046 1.97678741 -0.01720093 2.99513245 -0.02606201 C4.08347382 -0.03032196 5.17181519 -0.03458191 6.2931366 -0.03897095 C7.43631851 -0.04714844 8.57950043 -0.05532593 9.75732422 -0.06375122 C13.55335459 -0.08863395 17.34934753 -0.10512765 21.14543152 -0.11953735 C23.0860827 -0.12752287 23.0860827 -0.12752287 25.06593895 -0.13566971 C30.50211011 -0.15690437 35.93826904 -0.17603452 41.37447071 -0.1872921 C49.16489919 -0.20353114 56.95482889 -0.23670745 64.74506932 -0.29369295 C70.88320159 -0.33706219 77.02113818 -0.35303706 83.15941429 -0.35942459 C85.7705662 -0.36615477 88.38171035 -0.38142221 90.99276161 -0.4053154 C94.6440564 -0.43682414 98.29408611 -0.43702448 101.94548035 -0.42959595 C103.02774902 -0.44600128 104.1100177 -0.46240662 105.2250824 -0.47930908 C109.72531861 -0.44175578 112.54278075 -0.29209943 116.48345947 1.98858643 C119.22691358 6.73403664 119.01148591 10.98786024 118.96037292 16.38241577 C118.96913452 17.5162822 118.97789612 18.65014862 118.98692322 19.81837463 C119.00892788 23.56602251 118.99435909 27.31249029 118.97746277 31.06015015 C118.98083055 33.66419705 118.98568285 36.26824242 118.99195862 38.87228394 C119.0010476 44.32973005 118.98908748 49.78683752 118.96525574 55.24423218 C118.93804527 61.54802225 118.94686001 67.85100371 118.97438776 74.15477419 C118.99983694 80.2262622 118.99711152 86.29739255 118.9824791 92.36891174 C118.97914188 94.94932671 118.98324317 97.5297623 118.99487686 100.1101532 C119.00756504 103.71578766 118.98823344 107.31986607 118.96037292 110.92538452 C118.97049408 111.99358932 118.98061523 113.06179413 118.99104309 114.16236877 C118.88755818 121.38550497 118.88755818 121.38550497 115.95362854 125.3119812 C110.04536359 129.433801 102.24684234 127.79999239 95.47746277 126.68807983 C75.22121698 122.86725198 57.69074244 115.66187027 41.31340027 103.15390015 C40.45746277 102.5196814 39.60152527 101.88546265 38.71965027 101.23202515 C19.03316017 86.15566248 1.45398235 63.56826262 -4.68659973 39.15390015 C-4.92588196 38.22287476 -4.92588196 38.22287476 -5.16999817 37.27304077 C-11.88440568 10.73109715 -11.88440568 10.73109715 -8.31550598 3.2984314 C-5.786481 -0.03114826 -3.99583856 0.02583559 0 0 Z " fill="#ffffff" transform="translate(16.686599731445313,152.84609985351563)"/>
<path d="M0 0 C17.75795554 4.72673619 33.6813246 14.46608766 47.41015625 26.5078125 C48.23902344 27.19230469 49.06789063 27.87679687 49.921875 28.58203125 C69.52393263 45.22993263 81.68452735 69.04859179 88.41015625 93.5078125 C88.65765625 94.38824219 88.90515625 95.26867187 89.16015625 96.17578125 C90.40777146 101.34818597 90.72190868 106.58100079 90.91015625 111.8828125 C90.97456909 112.91921875 90.97456909 112.91921875 91.0402832 113.9765625 C91.06640625 115.96875 91.06640625 115.96875 90.41015625 119.5078125 C85.19882956 124.38472177 80.03332557 124.08376599 73.15991211 124.04125977 C71.47352379 124.05418312 71.47352379 124.05418312 69.75306702 124.06736755 C66.04347601 124.09003772 62.33463965 124.08328712 58.625 124.07421875 C56.0448026 124.0794532 53.46460713 124.08572901 50.88441467 124.09300232 C45.48005142 124.10340806 40.07597595 124.0991711 34.67163086 124.08422852 C28.42975376 124.06729319 22.18857529 124.08316554 15.94677442 124.1154514 C9.93243402 124.14537845 3.9184491 124.14733051 -2.09597588 124.1379528 C-4.65127916 124.13713194 -7.20659687 124.14402104 -9.76185799 124.15872383 C-13.33142403 124.17611651 -16.8994889 124.16166946 -20.46899414 124.13891602 C-21.52627716 124.15060822 -22.58356018 124.16230042 -23.67288208 124.17434692 C-28.10967074 124.11671974 -30.86119852 123.93107868 -34.74346924 121.67588806 C-37.52057682 116.91082733 -37.29574603 112.61433817 -37.25268555 107.1875 C-37.26823738 105.47207001 -37.26823738 105.47207001 -37.28410339 103.72198486 C-37.31120671 99.94189568 -37.30150412 96.16296388 -37.2890625 92.3828125 C-37.29496951 89.75634435 -37.30221542 87.12987891 -37.31074524 84.50341797 C-37.32440576 78.99890458 -37.31633097 73.49472165 -37.29663086 67.99023438 C-37.27426094 61.63181853 -37.29187473 55.27441763 -37.32968014 48.91609764 C-37.36469705 42.7922658 -37.36610377 36.66889552 -37.35379982 30.54498291 C-37.35231134 27.94222928 -37.36002362 25.33945373 -37.3770504 22.73675537 C-37.39698085 19.09979941 -37.37866917 15.46498183 -37.3503418 11.828125 C-37.36405823 10.75056946 -37.37777466 9.67301392 -37.39190674 8.56280518 C-37.28135232 1.4716367 -37.28135232 1.4716367 -35.30448341 -1.28372192 C-26.78737675 -8.75492107 -9.9433514 -2.4638544 0 0 Z " fill="#ffffff" transform="translate(190.58984375,11.4921875)"/>
<path d="M0 0 C14.52 0 29.04 0 44 0 C44 13.34624474 44 13.34624474 39.83422852 17.82983398 C39.24955811 18.40161377 38.6648877 18.97339355 38.0625 19.5625 C36.8633573 20.83478306 35.66544701 22.10822877 34.46875 23.3828125 C33.87707031 23.99415039 33.28539062 24.60548828 32.67578125 25.23535156 C30.33232669 27.70308023 28.20290496 30.29131442 26.0625 32.9375 C25.41410156 33.73027344 24.76570312 34.52304687 24.09765625 35.33984375 C21.33460546 38.84382436 18.67739402 42.43014131 16 46 C29.86 46.495 29.86 46.495 44 47 C44 50.3 44 53.6 44 57 C42.05136075 58.94863925 39.1019128 58.1291874 36.50878906 58.13894653 C35.59838867 58.1369223 34.68798828 58.13489807 33.75 58.1328125 C32.82155273 58.13376923 31.89310547 58.13472595 30.93652344 58.13571167 C28.96940035 58.13639355 27.00227504 58.13453872 25.03515625 58.13037109 C22.01296974 58.12502295 18.99093185 58.13031582 15.96875 58.13671875 C14.06249967 58.13605797 12.15624943 58.13477681 10.25 58.1328125 C8.88439941 58.13584885 8.88439941 58.13584885 7.49121094 58.13894653 C1.11494969 58.11494969 1.11494969 58.11494969 0 57 C-1.00278939 53.11701851 -0.93488414 49.89689329 0 46 C2.75269054 41.43893356 6.68070737 37.68349068 10.32324219 33.83349609 C13.04061389 30.86211265 15.48452991 27.69026916 17.9375 24.5 C18.79996227 23.38478282 19.66321058 22.27017297 20.52734375 21.15625 C20.88562256 20.69025391 21.24390137 20.22425781 21.61303711 19.74414062 C23.69564997 17.12520271 25.85790511 14.57051387 28 12 C14.14 11.505 14.14 11.505 0 11 C0 7.37 0 3.74 0 0 Z " fill="#ffffff" transform="translate(750,222)"/>
<path d="M0 0 C9.32145385 -0.4773433 17.52278679 -0.8857215 24.80859375 5.61328125 C28.96821984 10.1120615 30.69581254 14.26231283 31.375 20.375 C30.91751188 24.79738515 29.67104397 28.41387615 27 32 C24.859375 33.23046875 24.859375 33.23046875 23 34 C23 34.66 23 35.32 23 36 C24.051875 36.2784375 24.051875 36.2784375 25.125 36.5625 C29.0647946 38.5323973 31.48214896 41.42242051 34 45 C35.99374888 50.98124663 35.99908576 57.67434022 33.3125 63.4375 C29.91430292 69.25958591 25.20520783 71.67304706 19 74 C15.04494186 74.98876454 11.32050037 75.13420928 7.25 75.125 C6.10015625 75.12757813 4.9503125 75.13015625 3.765625 75.1328125 C1 75 1 75 0 74 C-0.07179964 72.48071962 -0.08392007 70.95832518 -0.0625 69.4375 C-0.05347656 68.61121094 -0.04445313 67.78492188 -0.03515625 66.93359375 C-0.02355469 66.29550781 -0.01195312 65.65742188 0 65 C1.30324219 64.94392578 1.30324219 64.94392578 2.6328125 64.88671875 C11.32386215 64.62062042 11.32386215 64.62062042 19 61 C21.36170276 57.13539549 21.3972947 53.44970065 21 49 C19.29858228 45.17181012 17.87541723 43.49203563 14 42 C11.59162245 41.71121265 9.17189532 41.50954974 6.75 41.375 C5.48671875 41.30023438 4.2234375 41.22546875 2.921875 41.1484375 C1.95765625 41.09945312 0.9934375 41.05046875 0 41 C0 37.7 0 34.4 0 31 C0.90363281 30.96261719 1.80726563 30.92523438 2.73828125 30.88671875 C3.91777344 30.82097656 5.09726562 30.75523437 6.3125 30.6875 C7.48425781 30.62949219 8.65601563 30.57148438 9.86328125 30.51171875 C12.93312749 30.23775181 12.93312749 30.23775181 14.86328125 28.73046875 C17.02079079 25.44601265 17.08793474 21.84883588 17 18 C16.27808606 14.96276905 16.27808606 14.96276905 14 13 C11.38426327 11.95716223 8.77272028 11.44906581 6 11 C4.845 10.79375 3.69 10.5875 2.5 10.375 C1.675 10.25125 0.85 10.1275 0 10 C0 6.7 0 3.4 0 0 Z " fill="#ffffff" transform="translate(536,205)"/>
<path d="M0 0 C4.62 0 9.24 0 14 0 C14 5.28 14 10.56 14 16 C16.64 16 19.28 16 22 16 C23.2380014 19.57644848 22.74926071 22.33694766 22 26 C19.36 26 16.72 26 14 26 C14.0441119 30.93026507 14.11389864 35.85924437 14.20751953 40.78881836 C14.23574768 42.4657976 14.2569531 44.14291035 14.27099609 45.82006836 C14.29240125 48.23100218 14.33903426 50.64032784 14.390625 53.05078125 C14.39185364 53.80087967 14.39308228 54.55097809 14.39434814 55.32380676 C14.50922886 59.55774492 14.50922886 59.55774492 16.83496094 62.95385742 C19.52923457 64.25572509 22.03949115 64.66357854 25 65 C25.09765625 71.15234375 25.09765625 71.15234375 25 73 C23.08392105 74.91607895 19.79780909 74.21828453 17.25 74.25 C16.01765625 74.27578125 14.7853125 74.3015625 13.515625 74.328125 C9.10351767 73.91632832 6.78014942 72.3186292 3.3125 69.75 C-0.38128814 64.82494915 -0.27857337 58.54385684 -0.1953125 52.66015625 C-0.1924826 51.89319931 -0.18965271 51.12624237 -0.18673706 50.33604431 C-0.17563475 47.91136379 -0.15054967 45.48706691 -0.125 43.0625 C-0.1149573 41.4082085 -0.10583372 39.75391115 -0.09765625 38.09960938 C-0.07572817 34.06626077 -0.04126843 30.0331952 0 26 C-0.969375 26.020625 -1.93875 26.04125 -2.9375 26.0625 C-6 26 -6 26 -7 25 C-7.07179964 23.48071962 -7.08392007 21.95832518 -7.0625 20.4375 C-7.05347656 19.61121094 -7.04445313 18.78492188 -7.03515625 17.93359375 C-7.02355469 17.29550781 -7.01195312 16.65742188 -7 16 C-4.69 16 -2.38 16 0 16 C0 10.72 0 5.44 0 0 Z " fill="#ffffff" transform="translate(481,206)"/>
<path d="M0 0 C2.14576637 -0.02685938 4.29162645 -0.04633088 6.4375 -0.0625 C7.63246094 -0.07410156 8.82742188 -0.08570313 10.05859375 -0.09765625 C13 0 13 0 14 1 C14.1238634 3.0854182 14.17799067 5.17500141 14.20532227 7.26391602 C14.21522186 7.91755127 14.22512146 8.57118652 14.23532104 9.24462891 C14.26701634 11.41435064 14.29172492 13.5840943 14.31640625 15.75390625 C14.33696887 17.25463952 14.35796515 18.7553669 14.37937927 20.25608826 C14.43467155 24.21311693 14.48404911 28.17019849 14.53222656 32.12731934 C14.5823895 36.1624016 14.63810268 40.19740672 14.69335938 44.23242188 C14.8010284 52.15488277 14.90245379 60.07740804 15 68 C15.63808594 68.13277344 16.27617188 68.26554687 16.93359375 68.40234375 C18.17302734 68.66724609 18.17302734 68.66724609 19.4375 68.9375 C20.26121094 69.11152344 21.08492187 69.28554688 21.93359375 69.46484375 C24 70 24 70 25 71 C25.125 74.5 25.125 74.5 25 78 C23.036987 79.963013 19.42160806 79.22987489 16.75 79.25 C16.08097656 79.270625 15.41195312 79.29125 14.72265625 79.3125 C10.24982635 79.34764994 7.39218778 78.9710886 4 76 C-1.01505608 68.54912563 -0.51662016 60.99339394 -0.390625 52.34375 C-0.38315322 50.83061474 -0.37746472 49.31746973 -0.37347412 47.80432129 C-0.35829123 43.84542547 -0.3190746 39.88712815 -0.2746582 35.9284668 C-0.23354551 31.87947686 -0.21542916 27.83038905 -0.1953125 23.78125 C-0.15257165 15.85389376 -0.08441147 7.92702159 0 0 Z " fill="#ffffff" transform="translate(651,201)"/>
<path d="M0 0 C2.14576637 -0.02685938 4.29162645 -0.04633088 6.4375 -0.0625 C7.63246094 -0.07410156 8.82742188 -0.08570313 10.05859375 -0.09765625 C13 0 13 0 14 1 C14.10797981 3.00869182 14.14628764 5.02115527 14.15771484 7.03271484 C14.16797699 8.32430511 14.17823914 9.61589539 14.18881226 10.94662476 C14.19225018 11.64132244 14.1956881 12.33602013 14.19923019 13.05176926 C14.21098819 15.22028604 14.23043278 17.38860085 14.25234985 19.55703735 C14.31406927 25.72382908 14.368025 31.89060171 14.40136719 38.05761719 C14.42229356 41.82609476 14.45758195 45.59420718 14.50212479 49.36247635 C14.51630404 50.80015391 14.52501157 52.23789611 14.52817917 53.67564011 C14.53307832 55.68667067 14.5578291 57.69762337 14.58349609 59.70849609 C14.59562637 61.42605606 14.59562637 61.42605606 14.60800171 63.17831421 C14.77576977 65.98192921 14.77576977 65.98192921 16.29556274 67.81900024 C18.95935385 69.66473357 21.88413004 70.23573001 25 71 C25.04241723 73.33294775 25.04092937 75.66702567 25 78 C23.036987 79.963013 19.42160806 79.22987489 16.75 79.25 C16.08097656 79.270625 15.41195313 79.29125 14.72265625 79.3125 C10.24982635 79.34764994 7.39218778 78.9710886 4 76 C-1.01505608 68.54912563 -0.51662016 60.99339394 -0.390625 52.34375 C-0.38315322 50.83061474 -0.37746472 49.31746973 -0.37347412 47.80432129 C-0.35829123 43.84542547 -0.3190746 39.88712815 -0.2746582 35.9284668 C-0.23354551 31.87947686 -0.21542916 27.83038905 -0.1953125 23.78125 C-0.15257165 15.85389376 -0.08441147 7.92702159 0 0 Z " fill="#ffffff" transform="translate(412,201)"/>
<path d="M0 0 C6.28129635 3.56478716 9.20828356 8.7782937 12 15.25 C13.80871496 26.28316128 13.5032288 38.14161741 7.5625 47.9375 C3.68480823 52.75559007 -1.91373654 55.5143361 -7.96484375 56.47265625 C-13.71067261 56.67628347 -18.15309587 55.38334628 -23.375 53.0625 C-23.375 49.7625 -23.375 46.4625 -23.375 43.0625 C-20.375 43.0625 -20.375 43.0625 -17 44.1875 C-13.53848933 45.29720295 -13.53848933 45.29720295 -10.6875 44.5 C-6.63600076 41.98150047 -4.79819964 39.18397904 -3.125 34.75 C-1.52140754 26.8656704 -2.56896316 21.43379884 -5.375 14.0625 C-5.705 13.0725 -6.035 12.0825 -6.375 11.0625 C-10.5583168 8.60172541 -13.73865088 9.06899662 -18.375 10.0625 C-20.025 10.7225 -21.675 11.3825 -23.375 12.0625 C-23.375 8.4325 -23.375 4.8025 -23.375 1.0625 C-16.30705365 -3.64946424 -7.64804257 -3.33879804 0 0 Z " fill="#ffffff" transform="translate(387.375,223.9375)"/>
<path d="M0 0 C1.51400391 0.01740234 1.51400391 0.01740234 3.05859375 0.03515625 C4.07050781 0.04417969 5.08242188 0.05320313 6.125 0.0625 C7.29869141 0.07990234 7.29869141 0.07990234 8.49609375 0.09765625 C10.28319997 4.70615355 10.74450077 8.53350223 10.73901367 13.46411133 C10.74091202 14.17539185 10.74281036 14.88667236 10.74476624 15.61950684 C10.74844789 17.95218195 10.73781161 20.28454046 10.7265625 22.6171875 C10.72536963 24.24289412 10.72491776 25.86860144 10.72517395 27.49430847 C10.72361388 30.8910253 10.71535716 34.28763602 10.7019043 37.68432617 C10.68484733 42.04702741 10.68109213 46.40961295 10.68184948 50.77234364 C10.68157829 54.12394829 10.67610637 57.47552744 10.66884804 60.82712364 C10.6656585 62.43675227 10.6636933 64.04638378 10.66295433 65.6560154 C10.6607976 67.89678561 10.65207 70.13743036 10.64135742 72.37817383 C10.63754562 73.65469315 10.63373383 74.93121246 10.62980652 76.24641418 C10.49609375 79.09765625 10.49609375 79.09765625 9.49609375 80.09765625 C7.49809803 80.19639441 5.49652217 80.22737424 3.49609375 80.22265625 C2.40296875 80.22523438 1.30984375 80.2278125 0.18359375 80.23046875 C-2.50390625 80.09765625 -2.50390625 80.09765625 -3.50390625 79.09765625 C-3.60420482 76.6690859 -3.6400905 74.26894012 -3.63330078 71.83984375 C-3.6350531 71.08052551 -3.63680542 70.32120728 -3.63861084 69.53887939 C-3.64302955 67.01678209 -3.64009131 64.49475432 -3.63671875 61.97265625 C-3.63739178 60.22770169 -3.6383618 58.48274721 -3.63961792 56.73779297 C-3.64109492 53.0758373 -3.63894028 49.41390597 -3.63427734 45.75195312 C-3.62858005 41.04721133 -3.63185905 36.34252657 -3.63784981 31.63778687 C-3.64145537 28.03311734 -3.64031686 24.42846143 -3.63772202 20.8237915 C-3.63705273 19.08856194 -3.63788121 17.35333116 -3.64020157 15.61810303 C-3.64272802 13.19719138 -3.63888763 10.77637339 -3.63330078 8.35546875 C-3.63532501 7.63127747 -3.63734924 6.90708618 -3.63943481 6.16094971 C-3.61356691 0.14093475 -3.61356691 0.14093475 0 0 Z " fill="#ffffff" transform="translate(351.50390625,221.90234375)"/>
<path d="M0 0 C4.29 0 8.58 0 13 0 C13.0093457 1.9480957 13.01869141 3.89619141 13.02832031 5.90332031 C13.06384872 12.34161189 13.117647 18.77954819 13.18390274 25.21759415 C13.22340347 29.12082851 13.2555789 33.02383641 13.27099609 36.92724609 C13.28614608 40.6946841 13.32056073 44.46149963 13.36830902 48.22866058 C13.3831402 49.66550026 13.39104202 51.10242881 13.39188385 52.53934479 C13.39424964 54.55270247 13.42359065 56.56597368 13.45410156 58.57910156 C13.46298401 59.72493713 13.47186646 60.87077271 13.48101807 62.05133057 C14.11575237 65.6576635 15.1175845 66.80330658 18 69 C21.63543901 70.27765265 21.63543901 70.27765265 25 71 C25.04241723 73.33294775 25.04092937 75.66702567 25 78 C23.036987 79.963013 19.42160806 79.22987489 16.75 79.25 C16.08097656 79.270625 15.41195312 79.29125 14.72265625 79.3125 C10.24982635 79.34764994 7.39218778 78.9710886 4 76 C-1.01505608 68.54912563 -0.51662016 60.99339394 -0.390625 52.34375 C-0.38315322 50.83061474 -0.37746472 49.31746973 -0.37347412 47.80432129 C-0.35829123 43.84542547 -0.3190746 39.88712815 -0.2746582 35.9284668 C-0.23354551 31.87947686 -0.21542916 27.83038905 -0.1953125 23.78125 C-0.15257148 15.85386305 -0.0822836 7.92707522 0 0 Z " fill="#ffffff" transform="translate(615,201)"/>
<path d="M0 0 C2.14576637 -0.02685938 4.29162645 -0.04633088 6.4375 -0.0625 C7.63246094 -0.07410156 8.82742188 -0.08570313 10.05859375 -0.09765625 C13 0 13 0 14 1 C14.09967586 3.26449379 14.12799831 5.53214211 14.12939453 7.79882812 C14.13114685 8.50937851 14.13289917 9.21992889 14.13470459 9.95201111 C14.13912277 12.31178191 14.13618525 14.67147837 14.1328125 17.03125 C14.13348555 18.66410334 14.13445558 20.29695658 14.13571167 21.92980957 C14.1371886 25.35637361 14.13503426 28.78291163 14.13037109 32.20947266 C14.1246738 36.61154501 14.12795284 41.01355641 14.13394356 45.41562653 C14.13754931 48.78868065 14.13641052 52.16172022 14.13381577 55.53477478 C14.13314654 57.15836087 14.13397478 58.78194827 14.13629532 60.40553284 C14.13882209 62.6707817 14.13498094 64.9359305 14.12939453 67.20117188 C14.12859894 68.49277222 14.12780334 69.78437256 14.12698364 71.1151123 C14 74 14 74 13 75 C11.00200428 75.09873816 9.00042842 75.12971799 7 75.125 C5.906875 75.12757813 4.81375 75.13015625 3.6875 75.1328125 C1 75 1 75 0 74 C-0.09443335 71.69946165 -0.11742128 69.39597827 -0.11352539 67.09350586 C-0.11367142 66.37159561 -0.11381744 65.64968536 -0.1139679 64.90589905 C-0.11326869 62.50885053 -0.10547595 60.11187877 -0.09765625 57.71484375 C-0.0957921 56.05717511 -0.09436818 54.39950593 -0.09336853 52.74183655 C-0.08954312 48.37045786 -0.07971265 43.99911219 -0.06866455 39.62774658 C-0.05845092 35.17045539 -0.05387101 30.71315889 -0.04882812 26.25585938 C-0.0380904 17.50389107 -0.02101371 8.75194964 0 0 Z " fill="#ffffff" transform="translate(688,205)"/>
<path d="M0 0 C4.29 0 8.58 0 13 0 C13 24.75 13 49.5 13 75 C9.04 75 5.08 75 1 75 C0 74 0 74 -0.12025452 71.07041931 C-0.11803391 69.75803787 -0.11581329 68.44565643 -0.11352539 67.09350586 C-0.11367142 66.37159561 -0.11381744 65.64968536 -0.1139679 64.90589905 C-0.11326869 62.50885053 -0.10547595 60.11187877 -0.09765625 57.71484375 C-0.0957921 56.05717511 -0.09436818 54.39950593 -0.09336853 52.74183655 C-0.08954312 48.37045786 -0.07971265 43.99911219 -0.06866455 39.62774658 C-0.05845092 35.17045539 -0.05387101 30.71315889 -0.04882812 26.25585938 C-0.0380904 17.50389107 -0.02101371 8.75194964 0 0 Z " fill="#ffffff" transform="translate(520,205)"/>
<path d="M0 0 C2.14576637 -0.02685938 4.29162645 -0.04633088 6.4375 -0.0625 C7.63246094 -0.07410156 8.82742188 -0.08570313 10.05859375 -0.09765625 C13 0 13 0 14 1 C14.09887792 2.74382535 14.12799032 4.49165543 14.12939453 6.23828125 C14.13254669 7.35614014 14.13569885 8.47399902 14.13894653 9.62573242 C14.1369223 10.84236572 14.13489807 12.05899902 14.1328125 13.3125 C14.13376923 14.55169189 14.13472595 15.79088379 14.13571167 17.06762695 C14.13639374 19.69388281 14.13503538 22.32004633 14.13037109 24.94628906 C14.12467381 28.31928714 14.12795302 31.69220565 14.13394356 35.06520081 C14.1384177 38.27263677 14.13528882 41.480063 14.1328125 44.6875 C14.13483673 45.9041333 14.13686096 47.1207666 14.13894653 48.37426758 C14.13579437 49.49212646 14.13264221 50.60998535 14.12939453 51.76171875 C14.12859894 52.75131592 14.12780334 53.74091309 14.12698364 54.76049805 C14 57 14 57 13 58 C11.00200428 58.09873816 9.00042842 58.12971799 7 58.125 C5.906875 58.12757813 4.81375 58.13015625 3.6875 58.1328125 C1 58 1 58 0 57 C-0.09370624 55.22008076 -0.11744271 53.43643261 -0.11352539 51.65405273 C-0.11344986 50.5129454 -0.11337433 49.37183807 -0.11329651 48.19615173 C-0.10813522 46.9545076 -0.10297394 45.71286346 -0.09765625 44.43359375 C-0.0962413 43.16983414 -0.09482635 41.90607452 -0.09336853 40.60401917 C-0.08870582 37.23875111 -0.0797148 33.8735501 -0.06866455 30.50830078 C-0.05844846 27.0765033 -0.05387049 23.64469891 -0.04882812 20.21289062 C-0.0377738 13.47524176 -0.0210171 6.73762475 0 0 Z " fill="#ffffff" transform="translate(448,222)"/>
<path d="M0 0 C4.29 0 8.58 0 13 0 C13 19.14 13 38.28 13 58 C9.04 58 5.08 58 1 58 C0 57 0 57 -0.12025452 54.71580505 C-0.11803391 53.70542679 -0.11581329 52.69504852 -0.11352539 51.65405273 C-0.11344986 50.5129454 -0.11337433 49.37183807 -0.11329651 48.19615173 C-0.10813522 46.9545076 -0.10297394 45.71286346 -0.09765625 44.43359375 C-0.0962413 43.16983414 -0.09482635 41.90607452 -0.09336853 40.60401917 C-0.08870582 37.23875111 -0.0797148 33.8735501 -0.06866455 30.50830078 C-0.05844846 27.0765033 -0.05387049 23.64469891 -0.04882812 20.21289062 C-0.0377738 13.47523936 -0.02049637 6.73762889 0 0 Z " fill="#ffffff" transform="translate(586,222)"/>
<path d="M0 0 C8.26477617 2.75492539 14.18884325 6.68250766 19 14 C21.4004429 19.86879937 21.49219796 25.03129201 19.09765625 30.8984375 C15.51953069 37.74908358 11.41085843 40.7497043 4.171875 43.37109375 C2 44 2 44 0 44 C-0.34699743 40.27299061 -0.54118409 36.71327301 0 33 C2.9375 30.4375 2.9375 30.4375 6 29 C7.60243984 25.79512031 7.63159396 22.46690163 7 19 C4.76194556 16.7030494 2.84045328 15.42022664 0 14 C0 9.38 0 4.76 0 0 Z " fill="#ffffff" transform="translate(317,236)"/>
<path d="M0 0 C0.98839371 -0.00860046 1.97678741 -0.01720093 2.99513245 -0.02606201 C4.08347382 -0.03032196 5.17181519 -0.03458191 6.2931366 -0.03897095 C7.43631851 -0.04714844 8.57950043 -0.05532593 9.75732422 -0.06375122 C13.55335459 -0.08863395 17.34934753 -0.10512765 21.14543152 -0.11953735 C23.0860827 -0.12752287 23.0860827 -0.12752287 25.06593895 -0.13566971 C30.50211011 -0.15690437 35.93826904 -0.17603452 41.37447071 -0.1872921 C49.16489919 -0.20353114 56.95482889 -0.23670745 64.74506932 -0.29369295 C70.88320159 -0.33706219 77.02113818 -0.35303706 83.15941429 -0.35942459 C85.7705662 -0.36615477 88.38171035 -0.38142221 90.99276161 -0.4053154 C94.6440564 -0.43682414 98.29408611 -0.43702448 101.94548035 -0.42959595 C103.02774902 -0.44600128 104.1100177 -0.46240662 105.2250824 -0.47930908 C109.72435137 -0.44176385 112.5442963 -0.29008368 116.48643494 1.98561096 C119.23311352 6.7488497 118.98755993 11.02037549 118.9127655 16.43002319 C118.91670822 17.5687085 118.92065094 18.7073938 118.92471313 19.88058472 C118.9314239 23.64271077 118.90226162 27.40362282 118.87199402 31.1656189 C118.86774466 33.77684799 118.86541543 36.38808085 118.8649292 38.99931335 C118.86030534 44.46937501 118.83668727 49.9390879 118.80046082 55.4090271 C118.75866701 61.73651952 118.74114216 68.06369837 118.73784107 74.39132088 C118.73459127 80.47877794 118.71949796 86.56612412 118.69784737 92.65354347 C118.68894556 95.24480353 118.68222512 97.836072 118.67768669 100.42734337 C118.6686837 104.0403602 118.64632886 107.6530356 118.61979675 111.26596069 C118.61913208 112.34495132 118.61846741 113.42394196 118.61778259 114.53562927 C118.6028199 116.0055986 118.6028199 116.0055986 118.58755493 117.50526428 C118.58290442 118.35972484 118.57825392 119.21418539 118.57346249 120.09453869 C118.31340027 122.15390015 118.31340027 122.15390015 116.31340027 124.15390015 C115.98340027 84.55390015 115.65340027 44.95390015 115.31340027 4.15390015 C112.08470315 3.34672587 109.85753093 3.02215583 106.61407471 3 C105.6734166 2.99139954 104.73275848 2.98279907 103.76359558 2.97393799 C102.226026 2.96754807 102.226026 2.96754807 100.65739441 2.96102905 C99.57244186 2.95285156 98.48748932 2.94467407 97.36965942 2.93624878 C93.77929739 2.91143433 90.18897469 2.89489211 86.59855652 2.88046265 C85.37281858 2.87513897 84.14708065 2.86981529 82.88419914 2.86433029 C77.06911219 2.840373 71.25404145 2.82112579 65.43891913 2.80830824 C59.39991427 2.79473149 53.36127844 2.76836721 47.32243347 2.72177124 C40.84037302 2.67256347 34.35865644 2.64769645 27.87641716 2.64057541 C25.40481755 2.63384801 22.93322605 2.61858767 20.46173286 2.5946846 C17.00701167 2.56316842 13.55362706 2.56297614 10.09880066 2.57040405 C8.56426743 2.54579605 8.56426743 2.54579605 6.99873352 2.52069092 C1.13016471 2.56106344 1.13016471 2.56106344 -3.79818726 5.62786865 C-4.42136337 6.46145905 -5.04453949 7.29504944 -5.68659973 8.15390015 C-6.01659973 8.48390015 -6.34659973 8.81390015 -6.68659973 9.15390015 C-6.78539538 10.96418515 -6.81631488 12.77842741 -6.81159973 14.59140015 C-6.81417786 15.58011108 -6.81675598 16.56882202 -6.81941223 17.5874939 C-6.85888388 20.1429909 -6.85888388 20.1429909 -5.68659973 22.15390015 C-6.62409973 24.27890015 -6.62409973 24.27890015 -7.68659973 26.15390015 C-10.69863087 8.26996526 -10.69863087 8.26996526 -8.31159973 3.27890015 C-5.78066312 -0.0307862 -3.98281539 0.02575138 0 0 Z " fill="#ffffff" transform="translate(16.686599731445313,152.84609985351563)"/>
<path d="M0 0 C0 3.96 0 7.92 0 12 C-1.65 12.66 -3.3 13.32 -5 14 C-6.23498256 17.70494769 -6.84945958 21.16595273 -6 25 C-4.46043432 26.12259997 -2.91787774 27.24263372 -1.3359375 28.3046875 C1.71440584 32.17559103 0.3687526 38.33596244 0 43 C-7.07953936 40.91898267 -13.22193687 36.94855405 -17.5 30.8125 C-20.27860688 25.6026121 -21.03410215 20.57575082 -19.3515625 14.7578125 C-16.69436731 8.01262471 -12.74136928 3.91418893 -6.3125 0.625 C-4 0 -4 0 0 0 Z " fill="#ffffff" transform="translate(314,204)"/>
<path d="M0 0 C0.66209473 -0.00095673 1.32418945 -0.00191345 2.00634766 -0.00289917 C3.40852961 -0.00358076 4.8107147 -0.00172792 6.21289062 0.00244141 C8.36595713 0.00779004 10.51881502 0.0024958 12.671875 -0.00390625 C14.03125046 -0.00324546 15.3906258 -0.00196429 16.75 0 C18.61785156 0.00169189 18.61785156 0.00169189 20.5234375 0.00341797 C23.375 0.1328125 23.375 0.1328125 24.375 1.1328125 C24.4729057 2.63019374 24.50474864 4.13224142 24.5 5.6328125 C24.50386719 6.85484375 24.50386719 6.85484375 24.5078125 8.1015625 C24.375 10.1328125 24.375 10.1328125 23.375 11.1328125 C21.16849344 11.23293651 18.95877614 11.2636243 16.75 11.265625 C16.08790527 11.26658173 15.42581055 11.26753845 14.74365234 11.26852417 C13.34147039 11.26920576 11.9392853 11.26735292 10.53710938 11.26318359 C8.38404287 11.25783496 6.23118498 11.2631292 4.078125 11.26953125 C2.71874954 11.26887046 1.3593742 11.26758929 0 11.265625 C-1.24523437 11.26449707 -2.49046875 11.26336914 -3.7734375 11.26220703 C-6.625 11.1328125 -6.625 11.1328125 -7.625 10.1328125 C-7.7229057 8.63543126 -7.75474864 7.13338358 -7.75 5.6328125 C-7.75257813 4.818125 -7.75515625 4.0034375 -7.7578125 3.1640625 C-7.46382008 -1.33229217 -3.70677723 0.00335759 0 0 Z " fill="#ffffff" transform="translate(711.625,268.8671875)"/>
<path d="M0 0 C10.56 0 21.12 0 32 0 C32 3.3 32 6.6 32 10 C21.44 10 10.88 10 0 10 C0 6.7 0 3.4 0 0 Z " fill="#ffffff" transform="translate(704,205)"/>
<path d="M0 0 C1.12591553 0.00523682 2.25183105 0.01047363 3.41186523 0.01586914 C4.62680664 0.0190918 5.84174805 0.02231445 7.09350586 0.02563477 C8.37290039 0.03401367 9.65229492 0.04239258 10.97045898 0.05102539 C12.2537207 0.05553711 13.53698242 0.06004883 14.85913086 0.06469727 C18.04211921 0.07652994 21.22501661 0.09301471 24.40795898 0.11352539 C25.53295898 6.73852539 25.53295898 6.73852539 24.40795898 10.11352539 C19.9288057 10.14238878 15.44967607 10.16027726 10.97045898 10.17602539 C9.69106445 10.1844043 8.41166992 10.1927832 7.09350586 10.20141602 C5.27109375 10.20625 5.27109375 10.20625 3.41186523 10.21118164 C2.28594971 10.21641846 1.16003418 10.22165527 0 10.22705078 C-2.59204102 10.11352539 -2.59204102 10.11352539 -3.59204102 9.11352539 C-3.72485352 7.30102539 -3.72485352 7.30102539 -3.71704102 5.11352539 C-3.71961914 4.39165039 -3.72219727 3.66977539 -3.72485352 2.92602539 C-3.5102392 -0.00282884 -2.94858936 0.12914138 0 0 Z " fill="#ffffff" transform="translate(707.592041015625,236.886474609375)"/>
<path d="M0 0 C0.66 0 1.32 0 2 0 C2 0.99 2 1.98 2 3 C2.66 3.33 3.32 3.66 4 4 C2.02 6.97 2.02 6.97 0 10 C1.98 10.66 3.96 11.32 6 12 C6 11.01 6 10.02 6 9 C6.99 9 7.98 9 9 9 C9.33 7.68 9.66 6.36 10 5 C10.66 5 11.32 5 12 5 C10.63728856 9.45978291 8.86550221 11.42299853 5 14 C-1.4226027 17.09661202 -6.65750244 18.14104637 -13.75 18.125 C-14.89984375 18.12757813 -16.0496875 18.13015625 -17.234375 18.1328125 C-20 18 -20 18 -21 17 C-21.07179964 15.48071962 -21.08392007 13.95832518 -21.0625 12.4375 C-21.05347656 11.61121094 -21.04445313 10.78492188 -21.03515625 9.93359375 C-21.02355469 9.29550781 -21.01195312 8.65742188 -21 8 C-20.13117187 7.96261719 -19.26234375 7.92523438 -18.3671875 7.88671875 C-9.69998086 7.58675791 -9.69998086 7.58675791 -2 4 C-0.59533047 1.94906855 -0.59533047 1.94906855 0 0 Z " fill="#ffffff" transform="translate(557,262)"/>
<path d="M0 0 C4.875 2.75 4.875 2.75 6 5 C6.10083954 6.54928532 6.13941794 8.10282079 6.14717102 9.65536499 C6.15432632 10.6367897 6.16148163 11.61821442 6.16885376 12.62937927 C6.17288712 14.25022179 6.17288712 14.25022179 6.17700195 15.90380859 C6.18357315 17.03884323 6.19014435 18.17387787 6.19691467 19.3433075 C6.21667908 23.11168477 6.2283161 26.88002217 6.23828125 30.6484375 C6.24235678 31.93242054 6.2464323 33.21640358 6.25063133 34.5392952 C6.2693497 40.63150516 6.28391388 46.72369504 6.2922433 52.81592786 C6.30201996 59.85065265 6.32835081 66.88506313 6.36874419 73.91967714 C6.40252125 80.01082382 6.41438643 86.10183812 6.41844749 92.19307327 C6.42333136 94.78549966 6.43499604 97.37792227 6.45348549 99.97028732 C6.47772086 103.59291652 6.47694027 107.21471764 6.4699707 110.83740234 C6.48278076 111.91391556 6.49559082 112.99042877 6.50878906 114.0995636 C6.45748912 121.39185597 6.45748912 121.39185597 3.97062683 124.69766235 C3.32031998 125.12743378 2.67001312 125.5572052 2 126 C1.67 125.34 1.34 124.68 1 124 C1.495 123.01 1.495 123.01 2 122 C2.66 122 3.32 122 4 122 C3.93952915 106.64913689 3.86207466 91.29842498 3.76428509 75.94775581 C3.71927966 68.82049155 3.67987614 61.69327778 3.65356445 54.56591797 C3.62817609 47.69289827 3.58730376 40.82011183 3.53681374 33.94723129 C3.52007583 31.31970878 3.5086049 28.69214747 3.50238609 26.06457901 C3.49282019 22.39583877 3.46485102 18.72768066 3.43237305 15.05908203 C3.43380814 13.96288544 3.43524323 12.86668884 3.4367218 11.73727417 C3.42418365 10.74165466 3.41164551 9.74603516 3.39872742 8.72024536 C3.39411845 7.85191637 3.38950949 6.98358738 3.38476086 6.08894539 C3.25778977 5.39959341 3.13081869 4.71024143 3 4 C2.01 3.34 1.02 2.68 0 2 C0 1.34 0 0.68 0 0 Z " fill="#ffffff" transform="translate(129,7)"/>
<path d="M0 0 C2.5625 0.1875 2.5625 0.1875 4.5625 2.1875 C6.29455805 7.29310903 6.28845668 12.89838703 5.5625 18.1875 C3.45214125 22.43012434 0.74453946 24.63266515 -3.5 26.625 C-6.24022853 27.14972461 -8.6570968 27.35105313 -11.4375 27.1875 C-11.4375 25.2075 -11.4375 23.2275 -11.4375 21.1875 C-9.4575 20.8575 -7.4775 20.5275 -5.4375 20.1875 C-5.5303125 18.9809375 -5.5303125 18.9809375 -5.625 17.75 C-5.41937597 13.84314338 -4.42032308 10.94398513 -2.99609375 7.3359375 C-2.35833957 4.88303682 -2.73296212 3.57771001 -3.4375 1.1875 C-2.4375 0.1875 -2.4375 0.1875 0 0 Z " fill="#ffffff" transform="translate(330.4375,249.8125)"/>
<path d="M0 0 C2.14576637 -0.02685938 4.29162645 -0.04633088 6.4375 -0.0625 C7.63246094 -0.07410156 8.82742188 -0.08570313 10.05859375 -0.09765625 C13 0 13 0 14 1 C14.1238634 3.0854182 14.17799067 5.17500141 14.20532227 7.26391602 C14.21522186 7.91755127 14.22512146 8.57118652 14.23532104 9.24462891 C14.26701634 11.41435064 14.29172492 13.5840943 14.31640625 15.75390625 C14.33696887 17.25463952 14.35796515 18.7553669 14.37937927 20.25608826 C14.43467155 24.21311693 14.48404911 28.17019849 14.53222656 32.12731934 C14.5823895 36.1624016 14.63810268 40.19740672 14.69335938 44.23242188 C14.8010284 52.15488277 14.90245379 60.07740804 15 68 C13 67 13 67 12.38209534 65.31585693 C11.9162156 62.49218775 11.88055897 59.80945868 11.88647461 56.94628906 C11.88655014 55.72532532 11.88662567 54.50436157 11.88670349 53.24639893 C11.89186478 51.93274353 11.89702606 50.61908813 11.90234375 49.265625 C11.90420979 47.9037074 11.90563282 46.54178912 11.90663147 45.17987061 C11.91044197 41.60258111 11.92025968 38.02533248 11.93133545 34.44805908 C11.94158116 30.79480543 11.94613585 27.14154514 11.95117188 23.48828125 C11.96188331 16.32550224 11.97894206 9.16275686 12 2 C8.37 2 4.74 2 1 2 C1 23.12 1 44.24 1 66 C1.66 66 2.32 66 3 66 C3 67.98 3 69.96 3 72 C3.66 72 4.32 72 5 72 C4.67 73.32 4.34 74.64 4 76 C-0.92670251 68.46504323 -0.51711805 61.027574 -0.390625 52.34375 C-0.38315322 50.83061474 -0.37746472 49.31746973 -0.37347412 47.80432129 C-0.35829123 43.84542547 -0.3190746 39.88712815 -0.2746582 35.9284668 C-0.23354551 31.87947686 -0.21542916 27.83038905 -0.1953125 23.78125 C-0.15257165 15.85389376 -0.08441147 7.92702159 0 0 Z " fill="#ffffff" transform="translate(412,201)"/>
<path d="M0 0 C2.81355932 0.64147959 5.62580239 1.28795515 8.4375 1.9375 C9.64116211 2.21110352 9.64116211 2.21110352 10.86914062 2.49023438 C16.88671875 3.88671875 16.88671875 3.88671875 18 5 C18.07205511 6.68608966 18.08386068 8.37500659 18.0625 10.0625 C18.05347656 10.98160156 18.04445313 11.90070313 18.03515625 12.84765625 C18.02355469 13.55792969 18.01195312 14.26820313 18 15 C11.30761154 15.50508592 4.81883348 14.56902089 -1 11 C-2.69986032 6.90199648 -1.5817125 4.00080221 0 0 Z " fill="#ffffff" transform="translate(296,265)"/>
<path d="M0 0 C0.8723412 2.99480917 1.10829766 5.63575911 1.0625 8.75 C1.05347656 9.54921875 1.04445312 10.3484375 1.03515625 11.171875 C1.02355469 11.77515625 1.01195312 12.3784375 1 13 C0.34 12.67 -0.32 12.34 -1 12 C-3.84334113 19.48526082 -5.46872049 26.60181519 -6.0625 34.5625 C-6.13654053 35.33577637 -6.21058105 36.10905273 -6.28686523 36.90576172 C-6.4816924 40.41882341 -6.45367058 42.45277392 -4.16963196 45.20782471 C0.53249379 47.8665036 4.80651147 47.57119757 10.12426758 47.54589844 C11.24665833 47.55623611 12.36904907 47.56657379 13.52545166 47.57722473 C17.23195714 47.60670084 20.93791767 47.60815299 24.64453125 47.609375 C27.21572413 47.62435331 29.78690737 47.64107971 32.358078 47.65948486 C38.43177207 47.69874136 44.50529433 47.72037845 50.57909364 47.73345876 C57.49573999 47.74933896 64.41220403 47.78775877 71.32874453 47.82805204 C85.55243021 47.91041019 99.77612399 47.96452775 114 48 C114 48.33 114 48.66 114 49 C98.83151793 49.09346739 83.66304916 49.16399096 68.49434376 49.20724869 C61.45112795 49.22786849 54.40809115 49.25597764 47.36499023 49.30175781 C40.56986988 49.34590503 33.77493574 49.36912821 26.97968102 49.37950897 C24.38528196 49.38690815 21.79089325 49.40135671 19.19657326 49.42292023 C15.56677754 49.45189454 11.9377538 49.45595833 8.30786133 49.45410156 C7.2318013 49.46848267 6.15574127 49.48286377 5.04707336 49.49768066 C0.53926158 49.47267695 -2.21778577 49.45544468 -6.16963196 47.15447998 C-9.36765063 43.390173 -8.53626279 39.63523293 -8.35546875 34.91015625 C-7.25468282 22.80151099 -3.8151173 11.47551094 0 0 Z " fill="#ffffff" transform="translate(159,229)"/>
<path d="M0 0 C3.375 1.0625 3.375 1.0625 5.3125 2.75 C6.69931433 5.7683606 6.7862874 7.77220079 6.375 11.0625 C5.25 13.375 5.25 13.375 3.375 15.0625 C-0.28378362 16.25558162 -1.92497692 16.38917744 -5.4375 14.75 C-8.21561831 12.60688016 -8.53744144 11.71918921 -9 8.25 C-8.625 5.0625 -8.625 5.0625 -6.5625 2.125 C-3.625 0.0625 -3.625 0.0625 0 0 Z " fill="#ffffff" transform="translate(593.625,196.9375)"/>
<path d="M0 0 C4.0424976 1.39649917 5.42973679 2.42294399 7.4375 6.1875 C7.37361062 9.38196895 7.00239338 11.32529432 5.25 14 C2.57529432 15.75239338 0.63196895 16.12361062 -2.5625 16.1875 C-5.97500319 14.2916649 -7.26355243 12.95147712 -8.6875 9.3125 C-8.5625 6.1875 -8.5625 6.1875 -6.5625 2.75 C-3.5625 0.1875 -3.5625 0.1875 0 0 Z " fill="#ffffff" transform="translate(455.5625,196.8125)"/>
<path d="M0 0 C4.29 0 8.58 0 13 0 C13 0.99 13 1.98 13 3 C12.67 2.67 12.34 2.34 12 2 C8.37 1.67 4.74 1.34 1 1 C1.33 24.43 1.66 47.86 2 72 C5.3 72.66 8.6 73.32 12 74 C12.33 52.22 12.66 30.44 13 8 C13.33 8 13.66 8 14 8 C14.02312635 16.5880572 14.04091658 25.17610149 14.05181217 33.76418209 C14.05704036 37.751572 14.06413684 41.73894067 14.07543945 45.72631836 C14.08627061 49.57125114 14.09227732 53.41616345 14.09487724 57.26111031 C14.09673108 58.73118983 14.10035091 60.20126818 14.10573006 61.67133904 C14.11294355 63.72354467 14.11399081 65.77566467 14.11352539 67.82788086 C14.115746 68.99814316 14.11796661 70.16840546 14.12025452 71.37413025 C14 74 14 74 13 75 C11.00200428 75.09873816 9.00042842 75.12971799 7 75.125 C5.906875 75.12757813 4.81375 75.13015625 3.6875 75.1328125 C1 75 1 75 0 74 C-0.09443335 71.69946165 -0.11742128 69.39597827 -0.11352539 67.09350586 C-0.11367142 66.37159561 -0.11381744 65.64968536 -0.1139679 64.90589905 C-0.11326869 62.50885053 -0.10547595 60.11187877 -0.09765625 57.71484375 C-0.0957921 56.05717511 -0.09436818 54.39950593 -0.09336853 52.74183655 C-0.08954312 48.37045786 -0.07971265 43.99911219 -0.06866455 39.62774658 C-0.05845092 35.17045539 -0.05387101 30.71315889 -0.04882812 26.25585938 C-0.0380904 17.50389107 -0.02101371 8.75194964 0 0 Z " fill="#ffffff" transform="translate(688,205)"/>
<path d="M0 0 C1.94576514 0.20311315 3.88322361 0.48823226 5.8125 0.8125 C7.39998047 1.06966797 7.39998047 1.06966797 9.01953125 1.33203125 C11.67264572 1.92663489 13.65769579 2.65586901 16 4 C15.39301257 8.12751449 13.96189209 11.3321148 12 15 C11.154375 14.690625 10.30875 14.38125 9.4375 14.0625 C5.9502146 12.98461179 2.61822465 12.43418696 -1 12 C-1.02687279 10.18757948 -1.04633715 8.37504767 -1.0625 6.5625 C-1.07410156 5.55316406 -1.08570313 4.54382813 -1.09765625 3.50390625 C-1 1 -1 1 0 0 Z " fill="#ffffff" transform="translate(318,203)"/>
<path d="M0 0 C1.32 0.33 2.64 0.66 4 1 C4 1.99 4 2.98 4 4 C4.61875 4.2475 5.2375 4.495 5.875 4.75 C8.51939985 6.30552932 9.07669938 7.07621471 10 10 C10.15467124 12.6912795 10.09002071 15.29937883 10 18 C10.66 18.33 11.32 18.66 12 19 C10.375 20.125 10.375 20.125 8 21 C4.75 20.125 4.75 20.125 2 19 C2 18.01 2 17.02 2 16 C1.34 16 0.68 16 0 16 C-1.59138085 11.82262526 -2.21278058 8.46839215 -2 4 C-1.34 4 -0.68 4 0 4 C0 2.68 0 1.36 0 0 Z " fill="#ffffff" transform="translate(555,210)"/>
<path d="M0 0 C0.66209473 -0.00095673 1.32418945 -0.00191345 2.00634766 -0.00289917 C3.40852961 -0.00358076 4.8107147 -0.00172792 6.21289062 0.00244141 C8.36595713 0.00779004 10.51881502 0.0024958 12.671875 -0.00390625 C14.03125046 -0.00324546 15.3906258 -0.00196429 16.75 0 C18.61785156 0.00169189 18.61785156 0.00169189 20.5234375 0.00341797 C23.375 0.1328125 23.375 0.1328125 24.375 1.1328125 C24.4729057 2.63019374 24.50474864 4.13224142 24.5 5.6328125 C24.50386719 6.85484375 24.50386719 6.85484375 24.5078125 8.1015625 C24.375 10.1328125 24.375 10.1328125 23.375 11.1328125 C21.16849344 11.23293651 18.95877614 11.2636243 16.75 11.265625 C16.08790527 11.26658173 15.42581055 11.26753845 14.74365234 11.26852417 C13.34147039 11.26920576 11.9392853 11.26735292 10.53710938 11.26318359 C8.38404287 11.25783496 6.23118498 11.2631292 4.078125 11.26953125 C2.71874954 11.26887046 1.3593742 11.26758929 0 11.265625 C-1.24523437 11.26449707 -2.49046875 11.26336914 -3.7734375 11.26220703 C-6.625 11.1328125 -6.625 11.1328125 -7.625 10.1328125 C-7.7229057 8.63543126 -7.75474864 7.13338358 -7.75 5.6328125 C-7.75257813 4.818125 -7.75515625 4.0034375 -7.7578125 3.1640625 C-7.46382008 -1.33229217 -3.70677723 0.00335759 0 0 Z M-3.625 2.1328125 C-3.8486068 5.4309549 -3.8486068 5.4309549 -1.625 9.1328125 C6.625 9.4628125 14.875 9.7928125 23.375 10.1328125 C23.375 7.4928125 23.375 4.8528125 23.375 2.1328125 C14.465 2.1328125 5.555 2.1328125 -3.625 2.1328125 Z " fill="#ffffff" transform="translate(711.625,268.8671875)"/>
<path d="M0 0 C1.12591553 0.00523682 2.25183105 0.01047363 3.41186523 0.01586914 C4.62680664 0.0190918 5.84174805 0.02231445 7.09350586 0.02563477 C8.37290039 0.03401367 9.65229492 0.04239258 10.97045898 0.05102539 C12.2537207 0.05553711 13.53698242 0.06004883 14.85913086 0.06469727 C18.04211921 0.07652994 21.22501661 0.09301471 24.40795898 0.11352539 C25.53295898 6.73852539 25.53295898 6.73852539 24.40795898 10.11352539 C19.9288057 10.14238878 15.44967607 10.16027726 10.97045898 10.17602539 C9.69106445 10.1844043 8.41166992 10.1927832 7.09350586 10.20141602 C5.27109375 10.20625 5.27109375 10.20625 3.41186523 10.21118164 C2.28594971 10.21641846 1.16003418 10.22165527 0 10.22705078 C-2.59204102 10.11352539 -2.59204102 10.11352539 -3.59204102 9.11352539 C-3.72485352 7.30102539 -3.72485352 7.30102539 -3.71704102 5.11352539 C-3.71961914 4.39165039 -3.72219727 3.66977539 -3.72485352 2.92602539 C-3.5102392 -0.00282884 -2.94858936 0.12914138 0 0 Z M-2.59204102 2.11352539 C-2.59204102 4.09352539 -2.59204102 6.07352539 -2.59204102 8.11352539 C5.98795898 8.11352539 14.56795898 8.11352539 23.40795898 8.11352539 C23.07795898 6.13352539 22.74795898 4.15352539 22.40795898 2.11352539 C14.15795898 2.11352539 5.90795898 2.11352539 -2.59204102 2.11352539 Z " fill="#ffffff" transform="translate(707.592041015625,236.886474609375)"/>
<path d="M0 0 C0.66 0 1.32 0 2 0 C2 0.99 2 1.98 2 3 C2.66 3.33 3.32 3.66 4 4 C2.02 6.97 2.02 6.97 0 10 C1.98 10.66 3.96 11.32 6 12 C6 11.01 6 10.02 6 9 C6.99 9 7.98 9 9 9 C9.33 7.68 9.66 6.36 10 5 C10.66 5 11.32 5 12 5 C10.44128379 10.10125304 7.8908229 12.45610997 3.22265625 14.94921875 C-1.51358935 17.16213688 -1.51358935 17.16213688 -5 16 C-3.68 15.67 -2.36 15.34 -1 15 C-3.03268602 12.83656989 -3.03268602 12.83656989 -6 11 C-5.67 10.67 -5.34 10.34 -5 10 C-10.28 10 -15.56 10 -21 10 C-21 9.34 -21 8.68 -21 8 C-20.13117187 7.96261719 -19.26234375 7.92523438 -18.3671875 7.88671875 C-9.69998086 7.58675791 -9.69998086 7.58675791 -2 4 C-0.59533047 1.94906855 -0.59533047 1.94906855 0 0 Z " fill="#ffffff" transform="translate(557,262)"/>
<path d="M0 0 C0.33 2.31 0.66 4.62 1 7 C-0.2065625 6.9690625 -0.2065625 6.9690625 -1.4375 6.9375 C-3.93354885 6.70366379 -3.93354885 6.70366379 -5 8 C-9.03160191 8.26293056 -10.55892734 8.29404844 -14 6 C-14.66 6 -15.32 6 -16 6 C-16.33 4.35 -16.66 2.7 -17 1 C-15.68 0.67 -14.36 0.34 -13 0 C-12.67 0.66 -12.34 1.32 -12 2 C-10.948125 1.484375 -9.89625 0.96875 -8.8125 0.4375 C-5.51476233 -0.99688183 -3.4935632 -1.16452107 0 0 Z " fill="#ffffff" transform="translate(383,270)"/>
<path d="M0 0 C0.66 0 1.32 0 2 0 C2 1.98 2 3.96 2 6 C-0.64 6 -3.28 6 -6 6 C-5.90645848 10.92994256 -5.80036358 15.85939439 -5.68261719 20.78881836 C-5.64433007 22.46582634 -5.60947669 24.14291638 -5.578125 25.82006836 C-5.53246821 28.23060432 -5.4744759 30.64057557 -5.4140625 33.05078125 C-5.40251129 33.80087967 -5.39096008 34.55097809 -5.37905884 35.32380676 C-5.27304541 39.06127713 -5.12380918 40.81428623 -3 44 C-4.9375 43.625 -4.9375 43.625 -7 43 C-8.55043334 39.89913331 -8.1420075 36.62099234 -8.1328125 33.21875 C-8.13376923 32.44946167 -8.13472595 31.68017334 -8.13571167 30.88757324 C-8.13639254 29.26017169 -8.13454473 27.63276743 -8.13037109 26.00537109 C-8.1250215 23.51002927 -8.13031919 21.01486745 -8.13671875 18.51953125 C-8.13605795 16.94010377 -8.13477675 15.3606764 -8.1328125 13.78125 C-8.13483673 13.0322644 -8.13686096 12.28327881 -8.13894653 11.51159668 C-8.11496122 6.22992243 -8.11496122 6.22992243 -7 4 C-4.69 4 -2.38 4 0 4 C0 2.68 0 1.36 0 0 Z " fill="#ffffff" transform="translate(501,226)"/>
<path d="M0 0 C4.29 0 8.58 0 13 0 C13 0.33 13 0.66 13 1 C9.04 1 5.08 1 1 1 C1 22.45 1 43.9 1 66 C1.66 66 2.32 66 3 66 C3 67.98 3 69.96 3 72 C3.66 72 4.32 72 5 72 C4.67 73.32 4.34 74.64 4 76 C-0.92670251 68.46504323 -0.51711805 61.027574 -0.390625 52.34375 C-0.38315322 50.83061474 -0.37746472 49.31746973 -0.37347412 47.80432129 C-0.35829123 43.84542547 -0.3190746 39.88712815 -0.2746582 35.9284668 C-0.23354551 31.87947686 -0.21542916 27.83038905 -0.1953125 23.78125 C-0.15257148 15.85386305 -0.0822836 7.92707522 0 0 Z " fill="#ffffff" transform="translate(412,201)"/>
<path d="M0 0 C0.99 0.33 1.98 0.66 3 1 C2.01 2.485 2.01 2.485 1 4 C14.86 4.495 14.86 4.495 29 5 C29 8.3 29 11.6 29 15 C28.67 15 28.34 15 28 15 C27.67 12.69 27.34 10.38 27 8 C23.27129547 7.80243197 19.54203204 7.61871901 15.8125 7.4375 C14.22985352 7.35338867 14.22985352 7.35338867 12.61523438 7.26757812 C11.59365234 7.21923828 10.57207031 7.17089844 9.51953125 7.12109375 C8.58214111 7.0739624 7.64475098 7.02683105 6.67895508 6.97827148 C3.97484288 6.91449429 3.97484288 6.91449429 1.2800293 7.55493164 C-1 8 -1 8 -3 7 C-3 5.68 -3 4.36 -3 3 C-2.01 3 -1.02 3 0 3 C0 2.01 0 1.02 0 0 Z " fill="#ffffff" transform="translate(765,264)"/>
<path d="M0 0 C0.8723412 2.99480917 1.10829766 5.63575911 1.0625 8.75 C1.05347656 9.54921875 1.04445312 10.3484375 1.03515625 11.171875 C1.02355469 11.77515625 1.01195312 12.3784375 1 13 C0.34 12.67 -0.32 12.34 -1 12 C-3.84334113 19.48526082 -5.46872049 26.60181519 -6.0625 34.5625 C-6.13654053 35.33577637 -6.21058105 36.10905273 -6.28686523 36.90576172 C-6.48518163 39.40767664 -6.48518163 39.40767664 -6 43 C-3.74225769 45.4725956 -3.74225769 45.4725956 -1 47 C-0.34 47.66 0.32 48.32 1 49 C-4.42183288 48.39757412 -4.42183288 48.39757412 -6.67578125 46.84765625 C-10.25689152 41.85100387 -8.2791957 33.0474351 -7.49609375 27.3046875 C-5.76049127 17.96218728 -2.99347815 9.00409832 0 0 Z " fill="#ffffff" transform="translate(159,229)"/>
<path d="M0 0 C4.0424976 1.39649917 5.42973679 2.42294399 7.4375 6.1875 C7.37361062 9.38196895 7.00239338 11.32529432 5.25 14 C2.57529432 15.75239338 0.63196895 16.12361062 -2.5625 16.1875 C-5.97500319 14.2916649 -7.26355243 12.95147712 -8.6875 9.3125 C-8.5625 6.1875 -8.5625 6.1875 -6.5625 2.75 C-3.5625 0.1875 -3.5625 0.1875 0 0 Z M-5.5625 4.1875 C-5.76396402 7.881007 -5.73603189 10.66690432 -4.5625 14.1875 C-2.2525 14.1875 0.0575 14.1875 2.4375 14.1875 C2.4375 12.5375 2.4375 10.8875 2.4375 9.1875 C3.4275 8.8575 4.4175 8.5275 5.4375 8.1875 C5.4375 7.1975 5.4375 6.2075 5.4375 5.1875 C4.7775 5.1875 4.1175 5.1875 3.4375 5.1875 C3.1075 4.1975 2.7775 3.2075 2.4375 2.1875 C-2.05554582 1.76246554 -2.05554582 1.76246554 -5.5625 4.1875 Z " fill="#ffffff" transform="translate(455.5625,196.8125)"/>
<path d="M0 0 C4.62 0 9.24 0 14 0 C14 5.28 14 10.56 14 16 C16.64 16 19.28 16 22 16 C22 16.33 22 16.66 22 17 C19.03 17 16.06 17 13 17 C13 11.72 13 6.44 13 1 C9.04 1 5.08 1 1 1 C1 6.61 1 12.22 1 18 C-0.98 18.99 -0.98 18.99 -3 20 C-3 19.34 -3 18.68 -3 18 C-3.66 18 -4.32 18 -5 18 C-5.33 20.31 -5.66 22.62 -6 25 C-6.33 25 -6.66 25 -7 25 C-7 22.03 -7 19.06 -7 16 C-4.69 16 -2.38 16 0 16 C0 10.72 0 5.44 0 0 Z " fill="#ffffff" transform="translate(481,206)"/>
<path d="M0 0 C1.8515625 1.5234375 1.8515625 1.5234375 3 3 C2.113125 2.835 1.22625 2.67 0.3125 2.5 C-5.41790827 1.65938226 -11.22424581 1.9218319 -17 2 C-17 2.99 -17 3.98 -17 5 C-17.73863281 4.95359375 -18.47726563 4.9071875 -19.23828125 4.859375 C-26.15361483 4.61334026 -31.28616271 5.42111655 -37.625 8.22265625 C-40.24822898 9.081246 -41.44764779 8.93940741 -44 8 C-30.60188627 2.62801462 -14.58872677 -2.28930789 0 0 Z " fill="#ffffff" transform="translate(273,151)"/>
<path d="M0 0 C0.33 0.99 0.66 1.98 1 3 C2.98 3 4.96 3 7 3 C7 6.3 7 9.6 7 13 C6.01 13 5.02 13 4 13 C4 12.01 4 11.02 4 10 C3.34 9.67 2.68 9.34 2 9 C2.33 8.34 2.66 7.68 3 7 C2.34 7 1.68 7 1 7 C1 7.66 1 8.32 1 9 C0.34 9 -0.32 9 -1 9 C-1 8.34 -1 7.68 -1 7 C-1.99 7 -2.98 7 -4 7 C-4.33 5.68 -4.66 4.36 -5 3 C-4.360625 2.87625 -3.72125 2.7525 -3.0625 2.625 C-2.0415625 2.315625 -2.0415625 2.315625 -1 2 C-0.67 1.34 -0.34 0.68 0 0 Z " fill="#ffffff" transform="translate(306,232)"/>
<path d="M0 0 C1.4540625 0.0309375 1.4540625 0.0309375 2.9375 0.0625 C2.9375 1.0525 2.9375 2.0425 2.9375 3.0625 C3.9275 3.3925 4.9175 3.7225 5.9375 4.0625 C5.9375 4.7225 5.9375 5.3825 5.9375 6.0625 C0.03854429 10.1074982 -6.13553328 9.33998976 -13.0625 9.0625 C-13.3925 7.4125 -13.7225 5.7625 -14.0625 4.0625 C-13.0725 4.5575 -13.0725 4.5575 -12.0625 5.0625 C-12.3925 5.7225 -12.7225 6.3825 -13.0625 7.0625 C-11.60327307 6.94840407 -10.14509402 6.82084456 -8.6875 6.6875 C-7.87539063 6.61789062 -7.06328125 6.54828125 -6.2265625 6.4765625 C-3.85915809 6.23357412 -3.85915809 6.23357412 -2.0625 4.0625 C-2.7225 3.0725 -3.3825 2.0825 -4.0625 1.0625 C-3.0625 0.0625 -3.0625 0.0625 0 0 Z " fill="#ffffff" transform="translate(550.0625,270.9375)"/>
<path d="M0 0 C0.33 0 0.66 0 1 0 C1 4.62 1 9.24 1 14 C-4 15 -4 15 -6 15 C-6 16.98 -6 18.96 -6 21 C-5.0925 20.649375 -4.185 20.29875 -3.25 19.9375 C0.00591313 18.99829429 0.92749994 19.04485324 4 20 C2.3767313 20.6708712 0.75132422 21.33657029 -0.875 22 C-2.23238281 22.556875 -2.23238281 22.556875 -3.6171875 23.125 C-6 24 -6 24 -8 24 C-8.34684804 20.27459515 -8.54109609 16.7119192 -8 13 C-5.125 10.875 -5.125 10.875 -2 9 C-0.88461914 6.05663384 -0.38621203 3.11633154 0 0 Z " fill="#ffffff" transform="translate(325,256)"/>
<path d="M0 0 C0.33 0.99 0.66 1.98 1 3 C0.38125 3.556875 -0.2375 4.11375 -0.875 4.6875 C-3.11267425 6.80044581 -3.11267425 6.80044581 -3.75 9.3125 C-5.45923364 12.98735232 -8.14670291 14.80875865 -11.3203125 17.25390625 C-13.46217987 19.07664406 -13.46217987 19.07664406 -13 23 C-13.99 23.33 -14.98 23.66 -16 24 C-16.66 27.3 -17.32 30.6 -18 34 C-18.33 34 -18.66 34 -19 34 C-19.97830357 29.56140045 -20.38677267 25.2788598 -17.93505859 21.25 C-15.05265536 17.47712343 -11.78435328 14.05435955 -8.50927734 10.62304688 C-6.44190011 8.39983047 -4.5900052 6.0378728 -2.75 3.625 C-2.20859375 2.91601562 -1.6671875 2.20703125 -1.109375 1.4765625 C-0.74328125 0.98929688 -0.3771875 0.50203125 0 0 Z " fill="#ffffff" transform="translate(769,245)"/>
<path d="M0 0 C2.97 0 5.94 0 9 0 C10.2077558 3.62326739 9.54311128 4.64146369 8 8 C5.36 8 2.72 8 0 8 C0 5.36 0 2.72 0 0 Z " fill="#ffffff" transform="translate(537,237)"/>
<path d="M0 0 C1.66611905 -0.042721 3.33382885 -0.04063832 5 0 C6 1 6 1 6.125 4.5 C6 8 6 8 5 9 C2.46950598 9.07313567 -0.03304837 9.09247527 -2.5625 9.0625 C-3.62887695 9.05573242 -3.62887695 9.05573242 -4.71679688 9.04882812 C-6.47790013 9.03700864 -8.23896036 9.01907263 -10 9 C-10 8.67 -10 8.34 -10 8 C-6.7 7.67 -3.4 7.34 0 7 C-0.2784375 5.824375 -0.2784375 5.824375 -0.5625 4.625 C-1 2 -1 2 0 0 Z " fill="#ffffff" transform="translate(634,271)"/>
<path d="M0 0 C-3.75 1.125 -3.75 1.125 -6 0 C-11.37723857 -0.46244252 -15.95899535 -0.06810447 -21 2 C-21 4.31 -21 6.62 -21 9 C-20.01 8.34 -19.02 7.68 -18 7 C-15.66800612 6.92094936 -13.33167378 6.91201231 -11 7 C-11 7.33 -11 7.66 -11 8 C-15 9.33333333 -19 10.66666667 -23 12 C-23 8.37 -23 4.74 -23 1 C-16.14031816 -3.57312122 -7.37704669 -3.39750224 0 0 Z " fill="#ffffff" transform="translate(387,224)"/>
<path d="M0 0 C14.78132118 -0.55353075 14.78132118 -0.55353075 21 3 C21 3.33 21 3.66 21 4 C19.33388095 4.042721 17.66617115 4.04063832 16 4 C15.67 3.67 15.34 3.34 15 3 C13.31816052 2.76712992 11.6287584 2.58735834 9.9375 2.4375 C8.55884766 2.31181641 8.55884766 2.31181641 7.15234375 2.18359375 C6.08693359 2.09271484 6.08693359 2.09271484 5 2 C3.62420173 4.66211372 2.62936439 7.06296616 2 10 C1.34 10 0.68 10 0 10 C0 6.7 0 3.4 0 0 Z " fill="#ffffff" transform="translate(536,205)"/>
<path d="M0 0 C0.99 0.33 1.98 0.66 3 1 C4.95160305 6.07287548 5.22168966 10.47453437 5.125 15.9375 C5.11146484 16.96327148 5.11146484 16.96327148 5.09765625 18.00976562 C5.07438958 19.67333287 5.03853167 21.33671631 5 23 C4.34 23 3.68 23 3 23 C3 24.65 3 26.3 3 28 C2.34 28.33 1.68 28.66 1 29 C0.34786708 31.02463255 0.34786708 31.02463255 0 33 C-1.32 32.34 -2.64 31.68 -4 31 C-3.21625 30.154375 -2.4325 29.30875 -1.625 28.4375 C2.33945724 23.64196674 3.40318085 18.38355036 3.26953125 12.19921875 C2.75303565 7.98491405 1.37760949 4.00162756 0 0 Z " fill="#ffffff" transform="translate(382,237)"/>
<path d="M0 0 C3.72980144 0.0666036 6.07656062 0.19571409 8.9375 2.6875 C10.32431433 5.7058606 10.4112874 7.70970079 10 11 C8.875 13.3125 8.875 13.3125 7 15 C3.8125 15.75 3.8125 15.75 1 16 C1 15.34 1 14.68 1 14 C2.65 14 4.3 14 6 14 C6 12.68 6 11.36 6 10 C6.66 10 7.32 10 8 10 C7.34 7.69 6.68 5.38 6 3 C3.03 3 0.06 3 -3 3 C-2.01 2.01 -1.02 1.02 0 0 Z " fill="#ffffff" transform="translate(590,197)"/>
<path d="M0 0 C3.53372712 1.96318174 6.24479785 4.04070881 9 7 C1.25 8.125 1.25 8.125 -1 7 C-1.33 7.66 -1.66 8.32 -2 9 C-3 6 -3 6 -1.5625 2.8125 C-1.046875 1.884375 -0.53125 0.95625 0 0 Z " fill="#ffffff" transform="translate(227,30)"/>
<path d="M0 0 C0.33 0 0.66 0 1 0 C1 1.65 1 3.3 1 5 C1.5775 4.7525 2.155 4.505 2.75 4.25 C3.4925 4.1675 4.235 4.085 5 4 C6.37849103 5.28659163 7.70529025 6.62913085 9 8 C10.96879323 9.06011943 12.96435867 10.07470849 15 11 C15 11.66 15 12.32 15 13 C10.28914613 11.62749022 6.3165464 9.59889808 2.1875 7 C1.60291016 6.64421875 1.01832031 6.2884375 0.41601562 5.921875 C-3.87008929 3.25982143 -3.87008929 3.25982143 -5 1 C-2.525 1.495 -2.525 1.495 0 2 C0 1.34 0 0.68 0 0 Z " fill="#ffffff" transform="translate(66,256)"/>
<path d="M0 0 C0.33 0 0.66 0 1 0 C1 8.91 1 17.82 1 27 C1.66 27 2.32 27 3 27 C3 28.98 3 30.96 3 33 C3.66 33 4.32 33 5 33 C4.67 34.32 4.34 35.64 4 37 C-0.84202463 29.52726907 -0.47185319 22.71200403 -0.25 14 C-0.22989985 12.63934927 -0.21165529 11.2786698 -0.1953125 9.91796875 C-0.1484085 6.611237 -0.08277725 3.30599584 0 0 Z " fill="#ffffff" transform="translate(412,240)"/>
<path d="M0 0 C1.48011371 0.30798326 2.95907325 0.621518 4.4375 0.9375 C5.26121094 1.11152344 6.08492188 1.28554688 6.93359375 1.46484375 C9 2 9 2 10 3 C10.125 6.5 10.125 6.5 10 10 C9 11 9 11 5.83984375 11.09765625 C3.90818359 11.08025391 3.90818359 11.08025391 1.9375 11.0625 C0.64714844 11.05347656 -0.64320313 11.04445313 -1.97265625 11.03515625 C-2.97167969 11.02355469 -3.97070312 11.01195312 -5 11 C-5 10.67 -5 10.34 -5 10 C-0.71 10 3.58 10 8 10 C8 8.02 8 6.04 8 4 C6.02 4 4.04 4 2 4 C1.34 2.68 0.68 1.36 0 0 Z " fill="#ffffff" transform="translate(427,269)"/>
<path d="M0 0 C5.14163159 3.65627135 7.58580019 6.79927778 9 13 C9.1875 16.5 9.1875 16.5 9 19 C8.34 19 7.68 19 7 19 C6.855625 17.7625 6.71125 16.525 6.5625 15.25 C6.21311498 12.43495501 5.79620634 9.7298503 5 7 C2.03 6.505 2.03 6.505 -1 6 C-0.34 5.67 0.32 5.34 1 5 C0.67 3.35 0.34 1.7 0 0 Z " fill="#ffffff" transform="translate(558,209)"/>
<path d="M0 0 C0 1.98 0 3.96 0 6 C-3.21956783 7.07318928 -3.90421689 6.870689 -7 6 C-7.99 6 -8.98 6 -10 6 C-9 3 -9 3 -6.6875 1.3125 C-4 0 -4 0 0 0 Z " fill="#ffffff" transform="translate(332,207)"/>
<path d="M0 0 C0.33 0 0.66 0 1 0 C1 3.3 1 6.6 1 10 C2.19625 9.649375 3.3925 9.29875 4.625 8.9375 C8.37673012 7.98287828 11.2006739 8.05016847 15 9 C14.34 10.65 13.68 12.3 13 14 C12.154375 13.690625 11.30875 13.38125 10.4375 13.0625 C6.9502146 11.98461179 3.61822465 11.43418696 0 11 C0 7.37 0 3.74 0 0 Z " fill="#ffffff" transform="translate(317,204)"/>
<path d="M0 0 C3.95099928 -0.0246985 7.90196874 -0.04285923 11.85302734 -0.05493164 C13.85906551 -0.06244036 15.86508202 -0.0751447 17.87109375 -0.08789062 C19.75634766 -0.09272461 19.75634766 -0.09272461 21.6796875 -0.09765625 C23.42354736 -0.10551147 23.42354736 -0.10551147 25.20263672 -0.11352539 C28 0 28 0 30 1 C30 2.32 30 3.64 30 5 C28.35 5 26.7 5 25 5 C25.66 3.68 26.32 2.36 27 1 C18.09 1 9.18 1 0 1 C0 0.67 0 0.34 0 0 Z " fill="#ffffff" transform="translate(752,231)"/>
<path d="M0 0 C0.33 0 0.66 0 1 0 C1 2.31 1 4.62 1 7 C1.99 6.67 2.98 6.34 4 6 C5.82421875 6.99609375 5.82421875 6.99609375 7.6875 8.4375 C8.31011719 8.91058594 8.93273437 9.38367188 9.57421875 9.87109375 C10.04472656 10.24363281 10.51523437 10.61617188 11 11 C8.5332355 11.88336837 7.36140628 12.1312406 4.859375 11.22265625 C4.16328125 10.83980469 3.4671875 10.45695312 2.75 10.0625 C2.04359375 9.68222656 1.3371875 9.30195313 0.609375 8.91015625 C0.07828125 8.60980469 -0.4528125 8.30945313 -1 8 C-0.67 5.36 -0.34 2.72 0 0 Z " fill="#ffffff" transform="translate(295,267)"/>
<path d="M0 0 C2.03833424 1.2739589 4.03852126 2.61061923 6 4 C6 4.66 6 5.32 6 6 C5.01 6 4.02 6 3 6 C3.66 8.31 4.32 10.62 5 13 C4.01 13 3.02 13 2 13 C0.54815522 8.46298506 -0.23509196 4.81938524 0 0 Z " fill="#ffffff" transform="translate(317,236)"/>
<path d="M0 0 C10.56 0 21.12 0 32 0 C32 0.33 32 0.66 32 1 C30.41693353 1.16918268 28.83353281 1.33523936 27.25 1.5 C26.36828125 1.5928125 25.4865625 1.685625 24.578125 1.78125 C20.92445161 2.09125865 17.32522225 1.9900127 13.671875 1.78125 C12.47304688 1.71357422 12.47304688 1.71357422 11.25 1.64453125 C10.0125 1.57298828 10.0125 1.57298828 8.75 1.5 C7.90953125 1.45230469 7.0690625 1.40460938 6.203125 1.35546875 C4.13535944 1.23798207 2.06767182 1.11912513 0 1 C0 0.67 0 0.34 0 0 Z " fill="#ffffff" transform="translate(751,223)"/>
<path d="M0 0 C4.04301175 1.48518799 7.61146256 3.42877998 11.3125 5.625 C12.38113281 6.25664062 13.44976562 6.88828125 14.55078125 7.5390625 C15.76314453 8.26222656 15.76314453 8.26222656 17 9 C14 10 14 10 11.375 9.25 C9 8 9 8 8 5 C6.68 5 5.36 5 4 5 C4 4.34 4 3.68 4 3 C2.68 2.67 1.36 2.34 0 2 C0 1.34 0 0.68 0 0 Z " fill="#ffffff" transform="translate(210,20)"/>
<path d="M0 0 C0.33 0.66 0.66 1.32 1 2 C1.66 2.33 2.32 2.66 3 3 C2.67 3.33 2.34 3.66 2 4 C5.3 4.33 8.6 4.66 12 5 C12 5.33 12 5.66 12 6 C9.77144426 6.0814222 7.54202345 6.13938079 5.3125 6.1875 C3.45044922 6.23970703 3.45044922 6.23970703 1.55078125 6.29296875 C-2.21666932 5.98212299 -4.02794917 5.2772857 -7 3 C-7.33 2.34 -7.66 1.68 -8 1 C-7.236875 1.350625 -6.47375 1.70125 -5.6875 2.0625 C-2.95240621 3.32360884 -2.95240621 3.32360884 0 2 C0 1.34 0 0.68 0 0 Z " fill="#ffffff" transform="translate(493,274)"/>
<path d="M0 0 C0.33 0 0.66 0 1 0 C1.04241723 2.33294775 1.04092937 4.66702567 1 7 C0 8 0 8 -3.16015625 8.09765625 C-5.09181641 8.08025391 -5.09181641 8.08025391 -7.0625 8.0625 C-8.35285156 8.05347656 -9.64320313 8.04445313 -10.97265625 8.03515625 C-11.97167969 8.02355469 -12.97070312 8.01195312 -14 8 C-14 7.67 -14 7.34 -14 7 C-10.37 6.01 -6.74 5.02 -3 4 C-3 4.66 -3 5.32 -3 6 C-2.34 5.67 -1.68 5.34 -1 5 C-0.34444881 2.47266765 -0.34444881 2.47266765 0 0 Z " fill="#ffffff" transform="translate(675,272)"/>
<path d="M0 0 C5.98993047 -0.3152595 9.63560356 0.31780178 15 3 C14.67 4.65 14.34 6.3 14 8 C13.67 8 13.34 8 13 8 C13 6.35 13 4.7 13 3 C11.02 3.66 9.04 4.32 7 5 C6.67 4.01 6.34 3.02 6 2 C3.03 1.505 3.03 1.505 0 1 C0 0.67 0 0.34 0 0 Z " fill="#ffffff" transform="translate(319,204)"/>
<path d="M0 0 C0.66 0 1.32 0 2 0 C2 0.66 2 1.32 2 2 C3.32 1.67 4.64 1.34 6 1 C7.04976964 4.14930893 7.10131595 6.38814456 7.0625 9.6875 C7.05347656 10.68136719 7.04445313 11.67523438 7.03515625 12.69921875 C7.02355469 13.45847656 7.01195312 14.21773438 7 15 C6.67 15 6.34 15 6 15 C5.91363281 14.40832031 5.82726562 13.81664062 5.73828125 13.20703125 C4.72391007 7.50235666 3.50562764 4.6756436 -1 1 C-0.67 0.67 -0.34 0.34 0 0 Z " fill="#ffffff" transform="translate(552,245)"/>
<path d="M0 0 C1.32 0 2.64 0 4 0 C4 0.99 4 1.98 4 3 C4.99 3 5.98 3 7 3 C7 3.66 7 4.32 7 5 C7.66 5 8.32 5 9 5 C9 4.34 9 3.68 9 3 C9.66 3 10.32 3 11 3 C11.33 4.98 11.66 6.96 12 9 C7.09198451 7.51272258 3.59508707 4.55364515 0 1 C0 0.67 0 0.34 0 0 Z " fill="#ffffff" transform="translate(298,236)"/>
<path d="M0 0 C1.99954746 -0.04254356 4.00041636 -0.04080783 6 0 C7 1 7 1 7.09765625 3.28515625 C7.08605469 4.20167969 7.07445312 5.11820312 7.0625 6.0625 C7.05347656 6.98160156 7.04445313 7.90070313 7.03515625 8.84765625 C7.02355469 9.55792969 7.01195312 10.26820313 7 11 C4.69 11 2.38 11 0 11 C0 10.67 0 10.34 0 10 C1.98 10 3.96 10 6 10 C5.67 7.69 5.34 5.38 5 3 C3.68 2.67 2.36 2.34 1 2 C0.67 2.99 0.34 3.98 0 5 C-0.33 4.34 -0.66 3.68 -1 3 C-0.67 2.01 -0.34 1.02 0 0 Z " fill="#ffffff" transform="translate(307,269)"/>
<path d="M0 0 C0.3403125 0.8971875 0.3403125 0.8971875 0.6875 1.8125 C1.87747021 4.22622044 1.87747021 4.22622044 4.625 5.375 C5.40875 5.91125 6.1925 6.4475 7 7 C7.3125 10.1875 7.3125 10.1875 7 13 C3.74085049 9.91702073 0.93446327 7.0838669 -1 3 C-0.67 2.01 -0.34 1.02 0 0 Z " fill="#ffffff" transform="translate(24,214)"/>
<path d="M0 0 C2 2 2 2 2.125 4.625 C2.08375 5.40875 2.0425 6.1925 2 7 C-0.64 7.33 -3.28 7.66 -6 8 C-6 6.68 -6 5.36 -6 4 C-4.35 3.67 -2.7 3.34 -1 3 C-0.67 2.01 -0.34 1.02 0 0 Z " fill="#ffffff" transform="translate(594,204)"/>
<path d="M0 0 C3.465 1.485 3.465 1.485 7 3 C6.51421457 6.12290635 6.0013988 8.99580359 5 12 C4.16180842 10.37750059 3.3295884 8.75191503 2.5 7.125 C2.0359375 6.22007812 1.571875 5.31515625 1.09375 4.3828125 C0 2 0 2 0 0 Z " fill="#ffffff" transform="translate(17,203)"/>
<path d="M0 0 C0 3.07868526 -0.43386841 4.35430616 -1.75 7.0625 C-2.07484375 7.75472656 -2.3996875 8.44695312 -2.734375 9.16015625 C-4.23126884 11.33619637 -5.58150096 12.0193901 -8 13 C-6.40956621 7.91061189 -3.2553049 4.12543357 0 0 Z " fill="#ffffff" transform="translate(175,202)"/>
<path d="M0 0 C2 4 2 4 2 6 C2.99 5.34 3.98 4.68 5 4 C7.33199388 3.92094936 9.66832622 3.91201231 12 4 C12 4.33 12 4.66 12 5 C8 6.33333333 4 7.66666667 0 9 C0 6.03 0 3.06 0 0 Z " fill="#ffffff" transform="translate(364,227)"/>
<path d="M0 0 C2.64 0 5.28 0 8 0 C8 0.66 8 1.32 8 2 C6.02 2.99 6.02 2.99 4 4 C4 3.34 4 2.68 4 2 C3.34 2 2.68 2 2 2 C1.67 4.31 1.34 6.62 1 9 C0.67 9 0.34 9 0 9 C0 6.03 0 3.06 0 0 Z " fill="#ffffff" transform="translate(474,222)"/>
<path d="M0 0 C5.98993047 -0.3152595 9.63560356 0.31780178 15 3 C15 3.33 15 3.66 15 4 C13.33388095 4.042721 11.66617115 4.04063832 10 4 C9.67 3.67 9.34 3.34 9 3 C6.9412232 2.72046781 4.88271568 2.55265649 2.8125 2.37890625 C1.9153125 2.19134766 1.9153125 2.19134766 1 2 C0.67 1.34 0.34 0.68 0 0 Z " fill="#ffffff" transform="translate(542,205)"/>
<path d="M0 0 C0.33 0.99 0.66 1.98 1 3 C0 5 0 5 -2.25 6.3125 C-5.31145976 8.19112304 -7.53949863 10.39889855 -10 13 C-8.65515286 8.95838045 -6.9494838 6.61321846 -3.875 3.6875 C-3.15054688 2.99011719 -2.42609375 2.29273438 -1.6796875 1.57421875 C-1.12539063 1.05472656 -0.57109375 0.53523438 0 0 Z " fill="#ffffff" transform="translate(44,43)"/>
<path d="M0 0 C0.66 0 1.32 0 2 0 C2 1.98 2 3.96 2 6 C-0.97 6 -3.94 6 -7 6 C-7 5.34 -7 4.68 -7 4 C-4.69 4 -2.38 4 0 4 C0 2.68 0 1.36 0 0 Z " fill="#ffffff" transform="translate(501,226)"/>
<path d="M0 0 C1.2375 0.309375 2.475 0.61875 3.75 0.9375 C4.79414063 1.19853516 4.79414063 1.19853516 5.859375 1.46484375 C7.90625 1.9765625 9.953125 2.48828125 12 3 C11.030625 3.12375 10.06125 3.2475 9.0625 3.375 C8.051875 3.58125 7.04125 3.7875 6 4 C5.67 4.66 5.34 5.32 5 6 C4.67 5.01 4.34 4.02 4 3 C2.68 3.33 1.36 3.66 0 4 C0 2.68 0 1.36 0 0 Z " fill="#ffffff" transform="translate(366,267)"/>
<path d="M0 0 C3.63 0 7.26 0 11 0 C11.33 1.98 11.66 3.96 12 6 C11.34 6 10.68 6 10 6 C9.67 5.01 9.34 4.02 9 3 C6.89415562 2.19436362 6.89415562 2.19436362 4.4375 1.8125 C3.61121094 1.65394531 2.78492188 1.49539062 1.93359375 1.33203125 C1.29550781 1.22246094 0.65742188 1.11289063 0 1 C0 0.67 0 0.34 0 0 Z " fill="#ffffff" transform="translate(349,222)"/>
<path d="M0 0 C2.09350689 3.4019487 2.17942163 6.05272412 2 10 C1.01 10.33 0.02 10.66 -1 11 C-1.02688151 9.35425434 -1.04634123 7.70838587 -1.0625 6.0625 C-1.07410156 5.14597656 -1.08570313 4.22945313 -1.09765625 3.28515625 C-1 1 -1 1 0 0 Z " fill="#ffffff" transform="translate(365,266)"/>
<path d="M0 0 C3.08089673 2.77280706 4.68775452 5.06326356 6 9 C3.525 8.01 3.525 8.01 1 7 C0.67 4.69 0.34 2.38 0 0 Z " fill="#ffffff" transform="translate(257,60)"/>
<path d="M0 0 C0.33 0.66 0.66 1.32 1 2 C1.66 2 2.32 2 3 2 C3 3.98 3 5.96 3 8 C3.66 8 4.32 8 5 8 C4.67 9.32 4.34 10.64 4 12 C3.32332002 10.75539217 2.65905281 9.50403104 2 8.25 C1.62875 7.55390625 1.2575 6.8578125 0.875 6.140625 C0 4 0 4 0 0 Z " fill="#ffffff" transform="translate(412,265)"/>
<path d="M0 0 C4.12751449 0.60698743 7.3321148 2.03810791 11 4 C11 4.66 11 5.32 11 6 C6.95743617 4.77782954 3.50711041 3.37245704 0 1 C0 0.67 0 0.34 0 0 Z " fill="#ffffff" transform="translate(70,263)"/>
<path d="M0 0 C1.2065625 0.0309375 1.2065625 0.0309375 2.4375 0.0625 C1.36348892 2.97767292 0.65939824 4.84060176 -1.5625 7.0625 C-2.2225 5.0825 -2.8825 3.1025 -3.5625 1.0625 C-2.5625 0.0625 -2.5625 0.0625 0 0 Z " fill="#ffffff" transform="translate(563.5625,229.9375)"/>
<path d="M0 0 C0.33 0.99 0.66 1.98 1 3 C1.66 3 2.32 3 3 3 C3 3.66 3 4.32 3 5 C3.66 5 4.32 5 5 5 C5.33 6.98 5.66 8.96 6 11 C0.86376022 6.04087193 0.86376022 6.04087193 -1 3 C-0.67 2.01 -0.34 1.02 0 0 Z " fill="#ffffff" transform="translate(32,226)"/>
<path d="M0 0 C0.33 0.99 0.66 1.98 1 3 C1.66 3 2.32 3 3 3 C2.67 3.99 2.34 4.98 2 6 C1.01 6.33 0.02 6.66 -1 7 C-1.33 6.34 -1.66 5.68 -2 5 C-2.99 5.495 -2.99 5.495 -4 6 C-2.84826645 3.53199953 -1.95216435 1.95216435 0 0 Z " fill="#ffffff" transform="translate(33,56)"/>
<path d="M0 0 C3.19199167 2.41556126 5.74716687 4.68003538 8 8 C7.67 8.66 7.34 9.32 7 10 C5.5 8.625 5.5 8.625 4 7 C4 6.34 4 5.68 4 5 C2.68 4.67 1.36 4.34 0 4 C0 2.68 0 1.36 0 0 Z " fill="#ffffff" transform="translate(249,50)"/>
<path d="M0 0 C-0.33 0.66 -0.66 1.32 -1 2 C-4.63 2 -8.26 2 -12 2 C-7.89783794 -0.73477471 -4.73617773 -1.57872591 0 0 Z " fill="#ffffff" transform="translate(105,11)"/>
<path d="M0 0 C2.97 0 5.94 0 9 0 C9 0.66 9 1.32 9 2 C6.69 2 4.38 2 2 2 C1.67 2.99 1.34 3.98 1 5 C0.34 5 -0.32 5 -1 5 C-0.67 3.35 -0.34 1.7 0 0 Z " fill="#ffffff" transform="translate(170,9)"/>
<path d="M0 0 C0.33 0.99 0.66 1.98 1 3 C-0.21484375 4.82421875 -0.21484375 4.82421875 -1.9375 6.6875 C-2.50339844 7.31011719 -3.06929688 7.93273437 -3.65234375 8.57421875 C-4.09707031 9.04472656 -4.54179687 9.51523437 -5 10 C-5.33 8.68 -5.66 7.36 -6 6 C-4.68 5.67 -3.36 5.34 -2 5 C-2 4.01 -2 3.02 -2 2 C-1.34 2 -0.68 2 0 2 C0 1.34 0 0.68 0 0 Z " fill="#ffffff" transform="translate(335,265)"/>
<path d="M0 0 C0.33 2.97 0.66 5.94 1 9 C-1 7.25 -1 7.25 -3 5 C-3 3.68 -3 2.36 -3 1 C-1 0 -1 0 0 0 Z " fill="#ffffff" transform="translate(450,202)"/>
<path d="M0 0 C0.66 0.33 1.32 0.66 2 1 C2 1.66 2 2.32 2 3 C1.01 3.495 1.01 3.495 0 4 C-0.65213292 6.02463255 -0.65213292 6.02463255 -1 8 C-2.32 7.34 -3.64 6.68 -5 6 C-3.35 4.02 -1.7 2.04 0 0 Z " fill="#ffffff" transform="translate(383,262)"/>
<path d="M0 0 C0.33 0 0.66 0 1 0 C1.3636198 4.24223102 0.5393228 6.58168085 -2 10 C-2.66 10 -3.32 10 -4 10 C-2.8905928 6.51329166 -1.73662334 3.22515763 0 0 Z " fill="#ffffff" transform="translate(164,219)"/>
<path d="M0 0 C2.5 1.8125 2.5 1.8125 5 4 C5 4.99 5 5.98 5 7 C2.03 6.505 2.03 6.505 -1 6 C-0.34 5.67 0.32 5.34 1 5 C0.67 3.35 0.34 1.7 0 0 Z " fill="#ffffff" transform="translate(558,209)"/>
<path d="M0 0 C0.66 0 1.32 0 2 0 C0.8141763 3.37503669 -0.27573689 5.64722731 -3 8 C-3.66 7.67 -4.32 7.34 -5 7 C-4.67 6.01 -4.34 5.02 -4 4 C-3.01 4 -2.02 4 -1 4 C-0.67 2.68 -0.34 1.36 0 0 Z " fill="#ffffff" transform="translate(567,267)"/>
<path d="M0 0 C0 4.38968456 -2.12805101 5.76905739 -5 9 C-6 7 -6 7 -5.875 5.0625 C-4.6417127 2.15546564 -2.74254029 1.40643092 0 0 Z " fill="#ffffff" transform="translate(788,238)"/>
<path d="M0 0 C0.66 0.33 1.32 0.66 2 1 C0.70525365 3.58949269 -0.32663393 3.96035764 -3 5 C-5.75 5.125 -5.75 5.125 -8 5 C-5.45378681 2.99940392 -3.01962385 1.20784954 0 0 Z " fill="#ffffff" transform="translate(227,160)"/>
<path d="M0 0 C4.455 0.99 4.455 0.99 9 2 C8.67 2.66 8.34 3.32 8 4 C6.02 4 4.04 4 2 4 C1.34 2.68 0.68 1.36 0 0 Z " fill="#ffffff" transform="translate(427,269)"/>
<path d="M0 0 C1.98 1.65 3.96 3.3 6 5 C5.67 5.66 5.34 6.32 5 7 C2.5 5.75 2.5 5.75 0 4 C0 2.68 0 1.36 0 0 Z " fill="#ffffff" transform="translate(329,243)"/>
<path d="M0 0 C2 1.3125 2 1.3125 4 3 C4 3.99 4 4.98 4 6 C2.68 6 1.36 6 0 6 C0 4.02 0 2.04 0 0 Z " fill="#ffffff" transform="translate(307,229)"/>
<path d="M0 0 C0.94875 0.04125 1.8975 0.0825 2.875 0.125 C2.875 1.775 2.875 3.425 2.875 5.125 C2.215 4.465 1.555 3.805 0.875 3.125 C-1.11321313 2.72735737 -3.11444339 2.38724651 -5.125 2.125 C-3.125 0.125 -3.125 0.125 0 0 Z " fill="#ffffff" transform="translate(310.125,204.875)"/>
<path d="M0 0 C2.4375 0.125 2.4375 0.125 5 1 C6.3125 3.5625 6.3125 3.5625 7 6 C5.35 4.68 3.7 3.36 2 2 C1.67 2.66 1.34 3.32 1 4 C0.34 3.01 -0.32 2.02 -1 1 C-0.67 0.67 -0.34 0.34 0 0 Z " fill="#ffffff" transform="translate(259,68)"/>
<path d="M0 0 C1.875 0.3125 1.875 0.3125 4 1 C4.66 1.99 5.32 2.98 6 4 C5.01 4.495 5.01 4.495 4 5 C1.875 4.0625 1.875 4.0625 0 3 C0 2.01 0 1.02 0 0 Z " fill="#ffffff" transform="translate(656,275)"/>
<path d="M0 0 C1.98 0 3.96 0 6 0 C2.79663178 2.83374881 0.21912747 3.5205537 -4 4 C-2.68 3.34 -1.36 2.68 0 2 C0 1.34 0 0.68 0 0 Z " fill="#ffffff" transform="translate(556,275)"/>
<path d="M0 0 C0.99 0.33 1.98 0.66 3 1 C1.6875 3.5 1.6875 3.5 0 6 C-0.99 6 -1.98 6 -3 6 C-3 5.01 -3 4.02 -3 3 C-2.01 3 -1.02 3 0 3 C0 2.01 0 1.02 0 0 Z " fill="#ffffff" transform="translate(765,264)"/>
<path d="M0 0 C0.66 0 1.32 0 2 0 C2 0.99 2 1.98 2 3 C2.66 3.33 3.32 3.66 4 4 C2.68 4 1.36 4 0 4 C0 4.66 0 5.32 0 6 C-0.99 5.67 -1.98 5.34 -3 5 C-1.625 2.5 -1.625 2.5 0 0 Z " fill="#ffffff" transform="translate(557,262)"/>
<path d="M0 0 C0.66 1.32 1.32 2.64 2 4 C1.360625 4.12375 0.72125 4.2475 0.0625 4.375 C-0.9584375 4.684375 -0.9584375 4.684375 -2 5 C-2.33 5.66 -2.66 6.32 -3 7 C-3.66 6.67 -4.32 6.34 -5 6 C-3.35 4.02 -1.7 2.04 0 0 Z " fill="#ffffff" transform="translate(776,237)"/>
<path d="" fill="#ffffff" transform="translate(0,0)"/>
<path d="" fill="#ffffff" transform="translate(0,0)"/>
<path d="" fill="#ffffff" transform="translate(0,0)"/>
<path d="" fill="#ffffff" transform="translate(0,0)"/>
<path d="" fill="#ffffff" transform="translate(0,0)"/>
<path d="" fill="#ffffff" transform="translate(0,0)"/>
<path d="" fill="#ffffff" transform="translate(0,0)"/>
<path d="" fill="#ffffff" transform="translate(0,0)"/>
<path d="" fill="#ffffff" transform="translate(0,0)"/>
<path d="" fill="#ffffff" transform="translate(0,0)"/>
<path d="" fill="#ffffff" transform="translate(0,0)"/>
<path d="" fill="#ffffff" transform="translate(0,0)"/>
<path d="" fill="#ffffff" transform="translate(0,0)"/>
<path d="" fill="#ffffff" transform="translate(0,0)"/>
<path d="" fill="#ffffff" transform="translate(0,0)"/>
<path d="" fill="#ffffff" transform="translate(0,0)"/>
<path d="" fill="#ffffff" transform="translate(0,0)"/>
<path d="" fill="#ffffff" transform="translate(0,0)"/>
<path d="" fill="#ffffff" transform="translate(0,0)"/>
<path d="" fill="#ffffff" transform="translate(0,0)"/>
<path d="" fill="#ffffff" transform="translate(0,0)"/>
<path d="" fill="#ffffff" transform="translate(0,0)"/>
<path d="" fill="#ffffff" transform="translate(0,0)"/>
<path d="" fill="#ffffff" transform="translate(0,0)"/>
<path d="" fill="#ffffff" transform="translate(0,0)"/>
<path d="" fill="#ffffff" transform="translate(0,0)"/>
<path d="" fill="#ffffff" transform="translate(0,0)"/>
<path d="" fill="#ffffff" transform="translate(0,0)"/>
<path d="" fill="#ffffff" transform="translate(0,0)"/>
<path d="" fill="#ffffff" transform="translate(0,0)"/>
<path d="" fill="#ffffff" transform="translate(0,0)"/>
<path d="" fill="#ffffff" transform="translate(0,0)"/>
<path d="" fill="#ffffff" transform="translate(0,0)"/>
<path d="" fill="#ffffff" transform="translate(0,0)"/>
<path d="" fill="#ffffff" transform="translate(0,0)"/>
<path d="" fill="#ffffff" transform="translate(0,0)"/>
<path d="" fill="#ffffff" transform="translate(0,0)"/>
<path d="" fill="#ffffff" transform="translate(0,0)"/>
<path d="" fill="#ffffff" transform="translate(0,0)"/>
<path d="" fill="#ffffff" transform="translate(0,0)"/>
<path d="" fill="#ffffff" transform="translate(0,0)"/>
<path d="" fill="#ffffff" transform="translate(0,0)"/>
<path d="" fill="#ffffff" transform="translate(0,0)"/>
<path d="" fill="#ffffff" transform="translate(0,0)"/>
<path d="" fill="#ffffff" transform="translate(0,0)"/>
<path d="" fill="#ffffff" transform="translate(0,0)"/>
<path d="" fill="#ffffff" transform="translate(0,0)"/>
<path d="" fill="#ffffff" transform="translate(0,0)"/>
<path d="" fill="#ffffff" transform="translate(0,0)"/>
<path d="" fill="#ffffff" transform="translate(0,0)"/>
<path d="" fill="#ffffff" transform="translate(0,0)"/>
<path d="" fill="#ffffff" transform="translate(0,0)"/>
<path d="" fill="#ffffff" transform="translate(0,0)"/>
<path d="" fill="#ffffff" transform="translate(0,0)"/>
<path d="" fill="#ffffff" transform="translate(0,0)"/>
<path d="" fill="#ffffff" transform="translate(0,0)"/>
<path d="" fill="#ffffff" transform="translate(0,0)"/>
</svg>
